<svg xmlns="http://www.w3.org/2000/svg" xmlns:v="https://svgstorm.com"
viewBox = "0 0 303 305"
width="303"
height="305">
<g fill="None" fill-opacity="0.0" stroke="#000000" stroke-opacity="0.00" stroke-width="0.3"><path d="
M 0.00 131.00 
C 0.50 131.00 1.00 131.00 1.00 131.00
C 1.41 121.95 2.11 107.22 7.31 99.31 C 12.50 91.39 15.38 84.05 21.75 74.75 C 28.12 65.46 35.49 59.70 39.00 49.00
C 42.10 55.28 43.35 45.73 47.30 44.30 C 51.24 42.86 52.52 36.61 56.25 34.25 C 59.98 31.89 65.95 29.85 63.00 25.00
C 75.62 25.21 83.02 13.57 95.00 12.00 C 106.98 10.43 116.67 2.27 128.00 0.00
L 0.00 0.00
L 0.00 131.00 Z"/>
</g>
<g fill="None" fill-opacity="0.0" stroke="#E4212D" stroke-opacity="0.94" stroke-width="0.3"><path d="
M 1.00 131.00 
C 0.94 132.33 1.05 133.67 1.00 135.00
C 0.95 136.28 1.60 138.49 0.00 139.00
L 0.00 148.00
C 1.34 148.47 1.57 151.58 0.00 152.00
L 0.00 154.00
C 1.50 155.64 1.72 160.43 0.00 162.00
L 0.00 164.00
C 3.03 173.81 4.84 184.61 1.00 196.00
C 3.57 197.50 4.47 205.92 7.92 210.08 C 11.37 214.24 13.90 218.08 14.78 224.22 C 15.66 230.37 23.92 231.46 24.92 237.08 C 25.92 242.70 31.88 245.81 34.75 250.25 C 37.62 254.69 39.93 260.23 44.75 263.25 C 49.57 266.27 53.23 271.24 58.68 273.32 C 64.13 275.40 66.01 281.04 71.25 283.75 C 76.49 286.47 80.85 289.21 86.23 291.77 C 91.61 294.33 95.77 299.02 102.22 297.22 C 108.67 295.42 114.67 299.42 120.69 301.31 C 126.72 303.19 135.34 303.69 142.00 304.00
C 143.33 304.00 144.67 304.00 146.00 304.00
C 147.33 304.00 148.67 304.00 150.00 304.00
C 153.31 304.00 156.69 303.81 160.00 304.00
C 161.29 304.07 163.49 303.38 164.00 305.00
L 166.00 305.00
C 166.53 303.72 165.03 303.14 165.00 302.00
C 168.11 301.71 170.72 306.38 176.22 303.22 C 181.72 300.06 185.70 300.80 192.00 300.00
C 197.09 292.93 212.32 292.40 220.25 285.25 C 228.18 278.09 241.56 276.19 248.03 268.03 C 254.50 259.87 267.22 254.10 268.00 244.00
C 275.15 238.61 278.31 229.78 283.77 220.77 C 289.23 211.76 290.46 200.59 294.78 190.78 C 299.09 180.96 299.47 168.35 298.00 158.00
C 296.66 158.73 295.36 159.34 294.00 160.00
C 292.21 168.10 284.69 176.91 285.22 186.22 C 285.76 195.54 276.23 202.03 275.80 210.25 C 275.38 218.46 266.02 223.74 265.00 232.00
C 256.61 237.63 248.74 248.92 240.25 258.25 C 231.76 267.58 219.46 273.08 211.00 282.00
C 205.61 277.08 198.86 285.54 193.00 286.00
C 194.24 288.92 197.79 283.99 199.00 287.00
C 194.80 291.55 187.53 287.54 183.26 288.60 C 178.98 289.66 169.42 288.57 172.00 294.00
C 170.01 294.80 164.09 295.91 168.00 293.00
C 163.54 295.61 156.17 288.24 150.00 291.00 C 143.83 293.77 140.15 289.76 133.32 289.68 C 126.49 289.59 121.98 289.95 115.00 290.00
C 117.94 284.26 102.81 287.26 100.00 284.00
C 111.05 282.68 92.57 280.84 89.00 279.00
C 89.74 273.09 77.26 270.19 73.10 266.90 C 68.94 263.60 60.20 259.77 58.00 253.00
C 51.98 257.68 51.64 246.02 45.00 245.00
C 46.04 237.81 39.14 233.64 34.30 229.70 C 29.46 225.76 27.98 216.00 22.00 212.00
C 24.11 210.40 24.23 207.52 21.00 205.00
C 23.76 202.24 21.89 199.02 22.00 195.00
C 21.54 202.97 15.63 196.99 17.00 192.00 C 18.38 187.01 12.77 184.00 17.00 179.00
C 8.41 178.71 15.35 161.77 8.00 158.00
C 12.24 149.14 8.83 139.45 11.00 131.00
C 8.40 133.18 7.73 127.89 8.00 126.00
C 11.83 130.21 15.16 120.35 15.98 115.98 C 16.79 111.60 11.72 100.25 18.00 98.00
C 19.45 101.26 17.52 105.44 17.00 109.00
C 20.91 107.95 17.34 100.09 23.00 99.00
C 20.17 93.64 25.73 84.07 30.23 80.23 C 34.73 76.40 37.76 63.71 42.00 66.00
C 42.00 62.67 42.00 59.33 42.00 56.00
C 42.30 54.18 44.81 50.71 44.00 54.00
C 46.25 53.25 48.71 57.11 48.00 59.00
C 51.59 57.11 52.22 55.25 49.00 53.00
C 52.66 52.81 57.10 51.30 55.00 47.00
C 57.67 48.57 60.03 47.32 60.00 44.00
C 70.77 49.34 70.10 24.63 79.00 34.00
C 80.42 30.30 81.10 25.80 84.00 23.00
C 85.47 21.04 87.06 18.32 90.00 19.00
C 89.05 19.87 89.46 21.68 88.00 22.00
C 86.87 25.62 84.92 28.70 83.00 32.00
C 88.28 33.84 93.38 30.81 96.00 26.00
C 93.34 25.52 92.68 29.53 90.00 29.00
C 90.31 24.41 94.98 21.78 99.00 21.00
C 99.64 29.92 110.63 15.47 117.00 21.00
C 115.33 18.49 113.43 16.03 113.00 13.00
C 113.18 12.03 112.86 10.97 113.00 10.00
C 114.78 10.25 118.36 8.97 118.00 12.00
C 123.62 10.74 124.84 11.71 122.00 17.00
C 129.92 18.11 135.36 9.95 141.70 8.70 C 148.03 7.44 158.19 12.19 165.00 13.00
C 164.76 10.35 167.92 9.27 170.00 9.00
C 175.84 7.95 178.80 10.89 184.00 11.00
C 185.33 11.03 186.67 11.00 188.00 11.00
C 191.55 11.01 197.11 10.96 198.00 15.00
C 195.65 17.35 193.54 13.77 191.00 14.00
C 190.94 13.90 188.53 15.37 189.00 16.00
C 197.20 15.94 204.91 24.30 212.00 23.00
C 214.55 22.76 216.87 22.05 220.00 23.00
C 220.35 23.11 220.80 23.69 221.00 24.00
C 221.15 24.23 222.18 26.34 222.00 27.00
C 224.11 27.58 225.45 30.43 228.00 30.00
C 225.61 26.75 228.69 27.74 231.00 28.00
C 231.63 28.05 234.69 27.90 235.00 28.00
C 231.54 23.64 222.30 17.86 215.00 16.00
C 215.22 16.14 215.00 17.00 215.00 17.00
C 212.14 19.94 209.00 15.57 212.00 13.00
C 191.47 6.21 169.70 1.33 148.00 1.00
C 146.71 0.85 144.51 1.67 144.00 0.00
L 128.00 0.00
C 116.67 2.27 106.98 10.43 95.00 12.00 C 83.02 13.57 75.62 25.21 63.00 25.00
C 65.95 29.85 59.98 31.89 56.25 34.25 C 52.52 36.61 51.24 42.86 47.30 44.30 C 43.35 45.73 42.10 55.28 39.00 49.00
C 35.49 59.70 28.12 65.46 21.75 74.75 C 15.38 84.05 12.50 91.39 7.31 99.31 C 2.11 107.22 1.41 121.95 1.00 131.00
M 212.00 22.00 
C 208.63 24.47 209.41 18.66 212.00 22.00
M 6.00 128.00 
C 3.65 126.19 5.51 122.80 7.00 121.00
C 8.52 122.54 6.67 125.92 6.00 128.00 Z"/>
</g>
<g fill="None" fill-opacity="0.0" stroke="#E32330" stroke-opacity="0.24" stroke-width="0.3"><path d="
M 148.00 1.00 
C 147.94 0.99 148.00 0.00 148.00 0.00
L 144.00 0.00
C 144.51 1.67 146.71 0.85 148.00 1.00 Z"/>
</g>
<g fill="None" fill-opacity="0.0" stroke="#000000" stroke-opacity="0.00" stroke-width="0.3"><path d="
M 148.00 1.00 
C 169.70 1.33 191.47 6.21 212.00 13.00
C 209.00 15.57 212.14 19.94 215.00 17.00
C 213.98 16.73 213.25 15.60 212.00 16.00
C 212.22 14.72 214.81 14.58 215.00 16.00
C 222.30 17.86 231.54 23.64 235.00 28.00
C 235.72 28.90 237.68 29.21 237.00 31.00
C 233.33 29.30 234.16 31.89 236.00 34.00
C 234.11 34.06 232.71 32.58 231.00 32.00
C 230.75 31.92 230.25 32.91 230.00 33.00
C 233.65 35.74 239.22 36.14 242.00 39.00
C 242.38 39.39 242.73 40.26 243.00 39.00
C 243.10 38.52 243.17 37.43 243.00 37.00
C 241.92 34.30 246.92 34.47 248.29 36.71 C 249.67 38.94 251.61 40.77 253.00 43.00
C 255.61 44.73 256.62 46.42 259.00 48.00
C 260.97 47.27 264.17 49.39 266.00 51.00
C 266.97 51.06 267.80 52.58 269.00 52.00
C 269.25 55.69 265.27 55.22 265.00 52.00
C 263.54 51.44 262.82 49.61 261.00 50.00
C 263.65 53.41 266.39 56.62 269.00 60.00
C 262.37 60.19 262.31 48.77 256.00 51.00
C 254.58 50.48 253.42 49.51 252.00 49.00
C 251.54 46.84 254.97 46.01 253.00 44.00
C 251.27 42.75 245.50 41.01 247.00 42.00
C 247.92 45.81 253.45 55.13 258.25 57.75 C 263.05 60.37 267.10 74.26 271.00 73.00
C 271.40 73.27 271.98 70.10 272.00 70.00
C 272.50 68.00 272.05 67.79 272.00 66.00
C 271.97 65.05 270.40 64.19 271.00 63.00
C 272.84 63.76 274.62 64.54 274.00 67.00
C 274.03 67.50 274.17 68.57 274.00 69.00
C 275.84 73.04 281.15 71.05 281.00 76.00
C 278.05 76.14 273.57 69.26 273.00 73.00
C 276.57 75.48 275.74 85.91 279.77 90.23 C 283.80 94.55 285.40 104.49 287.00 110.00
C 287.67 108.39 291.60 109.53 292.00 110.00
C 294.50 112.97 294.50 119.47 296.00 123.00
C 291.48 122.45 293.22 116.01 291.00 113.00
C 290.52 112.58 288.65 112.62 288.00 112.00
C 293.28 123.95 296.99 146.52 294.00 160.00
C 295.36 159.34 296.66 158.73 298.00 158.00
C 299.47 168.35 299.09 180.96 294.78 190.78 C 290.46 200.59 289.23 211.76 283.77 220.77 C 278.31 229.78 275.15 238.61 268.00 244.00
C 267.22 254.10 254.50 259.87 248.03 268.03 C 241.56 276.19 228.18 278.09 220.25 285.25 C 212.32 292.40 197.09 292.93 192.00 300.00
C 185.70 300.80 181.72 300.06 176.22 303.22 C 170.72 306.38 168.11 301.71 165.00 302.00
C 165.03 303.14 166.53 303.72 166.00 305.00
L 303.00 305.00
L 303.00 154.00
C 300.20 153.55 301.60 158.41 298.00 157.00
C 297.34 153.18 299.78 152.58 303.00 152.00
L 303.00 0.00
L 148.00 0.00
C 148.00 0.00 147.94 0.99 148.00 1.00
M 238.00 30.00 
C 244.06 29.25 240.04 35.52 238.00 30.00
M 265.00 62.00 
C 262.26 61.97 260.02 59.80 260.00 57.00
C 262.33 57.14 264.94 59.61 265.00 62.00
M 275.00 63.00 
C 269.24 62.61 272.18 58.12 275.00 63.00
M 280.00 80.00 
C 273.31 81.30 277.59 73.89 280.00 80.00
M 290.00 88.00 
C 291.41 95.19 281.98 92.19 282.00 87.00
C 284.86 88.12 287.23 86.97 290.00 88.00
M 293.00 100.00 
C 290.32 98.50 285.46 97.40 288.00 93.00
C 290.00 94.22 293.10 96.74 293.00 100.00
M 297.00 131.00 
C 292.11 128.14 296.56 125.25 297.00 131.00
M 302.00 159.00 
C 302.77 164.74 297.44 161.24 302.00 159.00 Z"/>
</g>
<g fill="None" fill-opacity="0.0" stroke="#E20E17" stroke-opacity="1.00" stroke-width="0.3"><path d="
M 118.00 12.00 
C 116.33 12.37 114.85 13.18 113.00 13.00
C 113.43 16.03 115.33 18.49 117.00 21.00
C 110.63 15.47 99.64 29.92 99.00 21.00
C 94.98 21.78 90.31 24.41 90.00 29.00
C 92.68 29.53 93.34 25.52 96.00 26.00
C 93.38 30.81 88.28 33.84 83.00 32.00
C 84.92 28.70 86.87 25.62 88.00 22.00
C 86.99 22.95 83.81 23.13 84.00 23.00
C 81.10 25.80 80.42 30.30 79.00 34.00
C 70.10 24.63 70.77 49.34 60.00 44.00
C 60.03 47.32 57.67 48.57 55.00 47.00
C 57.10 51.30 52.66 52.81 49.00 53.00
C 52.22 55.25 51.59 57.11 48.00 59.00
C 48.71 57.11 46.25 53.25 44.00 54.00
C 43.72 55.12 42.29 55.36 42.00 56.00
C 42.00 59.33 42.00 62.67 42.00 66.00
C 37.76 63.71 34.73 76.40 30.23 80.23 C 25.73 84.07 20.17 93.64 23.00 99.00
C 17.34 100.09 20.91 107.95 17.00 109.00
C 17.52 105.44 19.45 101.26 18.00 98.00
C 11.72 100.25 16.79 111.60 15.98 115.98 C 15.16 120.35 11.83 130.21 8.00 126.00
C 7.73 127.89 8.40 133.18 11.00 131.00
C 8.83 139.45 12.24 149.14 8.00 158.00
C 15.35 161.77 8.41 178.71 17.00 179.00
C 12.77 184.00 18.38 187.01 17.00 192.00 C 15.63 196.99 21.54 202.97 22.00 195.00
C 21.89 199.02 23.76 202.24 21.00 205.00
C 24.23 207.52 24.11 210.40 22.00 212.00
C 27.98 216.00 29.46 225.76 34.30 229.70 C 39.14 233.64 46.04 237.81 45.00 245.00
C 51.64 246.02 51.98 257.68 58.00 253.00
C 60.20 259.77 68.94 263.60 73.10 266.90 C 77.26 270.19 89.74 273.09 89.00 279.00
C 92.57 280.84 111.05 282.68 100.00 284.00
C 102.81 287.26 117.94 284.26 115.00 290.00
C 121.98 289.95 126.49 289.59 133.32 289.68 C 140.15 289.76 143.83 293.77 150.00 291.00 C 156.17 288.24 163.54 295.61 168.00 293.00
C 164.09 295.91 170.01 294.80 172.00 294.00
C 169.42 288.57 178.98 289.66 183.26 288.60 C 187.53 287.54 194.80 291.55 199.00 287.00
C 197.79 283.99 194.24 288.92 193.00 286.00
C 198.86 285.54 205.61 277.08 211.00 282.00
C 219.46 273.08 231.76 267.58 240.25 258.25 C 248.74 248.92 256.61 237.63 265.00 232.00
C 266.02 223.74 275.38 218.46 275.80 210.25 C 276.23 202.03 285.76 195.54 285.22 186.22 C 284.69 176.91 292.21 168.10 294.00 160.00
C 296.99 146.52 293.28 123.95 288.00 112.00
C 287.66 111.24 287.24 110.81 287.00 110.00
C 285.40 104.49 283.80 94.55 279.77 90.23 C 275.74 85.91 276.57 75.48 273.00 73.00
C 272.82 73.24 271.45 72.85 271.00 73.00
C 267.10 74.26 263.05 60.37 258.25 57.75 C 253.45 55.13 247.92 45.81 247.00 42.00
C 246.79 41.11 245.11 36.26 243.00 37.00
C 243.17 37.43 243.10 38.52 243.00 39.00
C 243.71 39.90 245.68 40.21 245.00 42.00
C 243.73 42.40 240.12 39.85 242.00 39.00
C 239.22 36.14 233.65 35.74 230.00 33.00
C 229.39 32.54 228.61 32.38 228.00 32.00
C 225.66 30.54 223.57 29.01 221.00 28.00
C 220.57 27.83 220.00 28.00 220.00 28.00
C 218.60 27.13 215.50 23.67 216.00 24.00
C 215.13 23.90 213.51 23.00 212.00 23.00
C 204.91 24.30 197.20 15.94 189.00 16.00
C 188.53 15.37 190.94 13.90 191.00 14.00
C 189.97 13.58 189.60 12.92 188.00 13.00
C 187.08 13.04 187.03 13.21 186.00 13.00
C 181.01 11.98 173.75 8.72 170.00 9.00
C 167.92 9.27 164.76 10.35 165.00 13.00
C 158.19 12.19 148.03 7.44 141.70 8.70 C 135.36 9.95 129.92 18.11 122.00 17.00
C 124.84 11.71 123.62 10.74 118.00 12.00
M 117.00 169.00 
C 108.84 162.80 103.68 150.11 99.08 139.92 C 94.47 129.74 88.41 115.79 86.07 104.93 C 83.74 94.07 73.87 77.51 80.92 67.92 C 87.96 58.33 101.66 55.56 111.23 50.23 C 120.80 44.90 142.82 40.09 138.08 54.08 C 133.33 68.06 131.59 77.97 127.02 91.02 C 122.46 104.08 121.22 113.64 118.61 126.75 C 115.99 139.86 115.07 155.04 117.00 169.00
M 123.00 168.00 
C 119.26 170.63 121.93 163.95 122.00 163.00
C 121.53 156.53 122.88 147.85 124.00 141.00 C 125.12 134.14 128.25 127.47 129.78 120.78 C 131.31 114.09 133.60 106.04 135.97 99.97 C 138.35 93.91 139.31 85.33 141.78 79.78 C 144.24 74.23 145.72 68.37 148.26 62.26 C 150.79 56.15 151.36 47.75 158.08 45.08 C 164.79 42.40 171.83 47.24 178.23 48.77 C 184.63 50.30 192.47 53.27 198.03 55.97 C 203.58 58.68 212.66 62.09 207.75 67.75 C 202.84 73.41 199.25 75.89 194.25 80.25 C 189.25 84.60 184.49 88.55 179.75 92.75 C 175.02 96.96 170.63 101.06 166.25 105.25 C 161.87 109.43 158.89 114.77 154.23 119.23 C 149.57 123.69 146.39 129.84 142.70 134.70 C 139.01 139.55 136.77 146.54 132.70 150.70 C 128.62 154.85 127.17 165.06 123.00 168.00
M 255.00 138.00 
C 255.74 143.16 255.83 148.89 255.00 154.00
C 254.23 168.24 249.05 189.82 241.08 201.08 C 233.10 212.33 225.24 230.71 210.00 231.00 C 194.75 231.28 181.45 218.75 168.25 211.75 C 155.06 204.74 145.47 196.74 134.25 184.75 C 123.03 172.77 135.19 155.60 143.92 143.92 C 152.64 132.24 160.73 122.00 171.25 110.25 C 181.77 98.50 191.45 92.83 204.08 82.08 C 216.71 71.32 230.97 76.50 238.92 92.08 C 246.87 107.66 254.30 119.72 255.00 138.00
M 113.00 174.00 
C 110.68 176.32 107.18 174.26 105.00 174.00
C 93.55 173.77 80.89 168.56 70.78 164.22 C 60.67 159.89 46.12 159.04 43.00 147.00
C 41.83 142.49 42.72 138.39 44.00 134.00
C 48.31 119.18 52.22 102.49 58.97 88.97 C 65.73 75.45 68.57 89.53 71.77 95.23 C 74.97 100.93 77.19 110.59 80.32 116.68 C 83.45 122.77 87.26 132.16 89.92 138.08 C 92.59 143.99 98.82 152.36 100.77 157.23 C 102.73 162.10 114.84 172.16 113.00 174.00
M 79.00 226.00 
C 77.58 224.74 76.28 223.28 75.00 222.00
C 57.38 206.94 41.34 183.58 44.00 161.00
C 66.93 162.63 82.21 182.45 88.78 202.22 C 95.35 221.99 113.75 237.04 129.00 249.00
C 110.64 250.72 92.71 237.97 79.00 226.00
M 206.00 238.00 
C 204.02 247.40 190.69 244.42 184.26 249.26 C 177.82 254.09 172.23 260.48 165.00 264.00
C 161.43 247.68 137.98 249.73 126.77 239.23 C 115.56 228.73 100.31 219.65 97.00 204.00
C 135.90 206.80 172.56 218.70 206.00 238.00 Z"/>
</g>
<g fill="None" fill-opacity="0.0" stroke="#000000" stroke-opacity="0.00" stroke-width="0.3"><path d="
M 186.00 13.00 
C 186.98 13.59 184.68 11.26 184.00 11.00
C 178.80 10.89 175.84 7.95 170.00 9.00
C 173.75 8.72 181.01 11.98 186.00 13.00 Z"/>
</g>
<g fill="None" fill-opacity="0.0" stroke="#000000" stroke-opacity="0.00" stroke-width="0.3"><path d="
M 113.00 13.00 
C 114.85 13.18 116.33 12.37 118.00 12.00
C 118.36 8.97 114.78 10.25 113.00 10.00
C 112.86 10.97 113.18 12.03 113.00 13.00 Z"/>
</g>
<g fill="None" fill-opacity="0.0" stroke="#E22130" stroke-opacity="0.17" stroke-width="0.3"><path d="
M 186.00 13.00 
C 187.03 13.21 187.08 13.04 188.00 13.00
C 188.13 12.54 188.24 11.32 188.00 11.00
C 186.67 11.00 185.33 11.03 184.00 11.00
C 184.68 11.26 186.98 13.59 186.00 13.00 Z"/>
</g>
<g fill="None" fill-opacity="0.0" stroke="#000000" stroke-opacity="0.00" stroke-width="0.3"><path d="
M 188.00 13.00 
C 189.60 12.92 189.97 13.58 191.00 14.00
C 193.54 13.77 195.65 17.35 198.00 15.00
C 197.11 10.96 191.55 11.01 188.00 11.00
C 188.24 11.32 188.13 12.54 188.00 13.00 Z"/>
</g>
<g fill="None" fill-opacity="0.0" stroke="#E2222F" stroke-opacity="0.24" stroke-width="0.3"><path d="
M 215.00 17.00 
C 215.00 17.00 215.22 16.14 215.00 16.00
C 214.81 14.58 212.22 14.72 212.00 16.00
C 213.25 15.60 213.98 16.73 215.00 17.00 Z"/>
</g>
<g fill="None" fill-opacity="0.0" stroke="#000000" stroke-opacity="0.01" stroke-width="0.3"><path d="
M 84.00 23.00 
C 83.81 23.13 86.99 22.95 88.00 22.00
C 89.46 21.68 89.05 19.87 90.00 19.00
C 87.06 18.32 85.47 21.04 84.00 23.00 Z"/>
</g>
<g fill="None" fill-opacity="0.0" stroke="#E5222E" stroke-opacity="0.49" stroke-width="0.3"><path d="
M 212.00 22.00 
C 209.41 18.66 208.63 24.47 212.00 22.00 Z"/>
</g>
<g fill="None" fill-opacity="0.0" stroke="#000000" stroke-opacity="0.00" stroke-width="0.3"><path d="
M 212.00 23.00 
C 213.51 23.00 215.13 23.90 216.00 24.00
C 217.57 24.17 219.25 23.02 220.00 23.00
C 216.87 22.05 214.55 22.76 212.00 23.00 Z"/>
</g>
<g fill="None" fill-opacity="0.0" stroke="#E4202B" stroke-opacity="0.40" stroke-width="0.3"><path d="
M 216.00 24.00 
C 215.50 23.67 218.60 27.13 220.00 28.00
C 219.57 25.59 219.87 26.17 221.00 24.00
C 220.80 23.69 220.35 23.11 220.00 23.00
C 219.25 23.02 217.57 24.17 216.00 24.00 Z"/>
</g>
<g fill="None" fill-opacity="0.0" stroke="#E01B2B" stroke-opacity="0.07" stroke-width="0.3"><path d="
M 220.00 28.00 
C 220.00 28.00 220.57 27.83 221.00 28.00
C 221.26 27.88 221.93 27.24 222.00 27.00
C 222.18 26.34 221.15 24.23 221.00 24.00
C 219.87 26.17 219.57 25.59 220.00 28.00 Z"/>
</g>
<g fill="None" fill-opacity="0.0" stroke="#000000" stroke-opacity="0.02" stroke-width="0.3"><path d="
M 221.00 28.00 
C 223.57 29.01 225.66 30.54 228.00 32.00
C 227.98 31.93 228.95 30.07 229.00 30.00
C 229.21 29.72 230.76 28.08 231.00 28.00
C 228.69 27.74 225.61 26.75 228.00 30.00
C 225.45 30.43 224.11 27.58 222.00 27.00
C 221.93 27.24 221.26 27.88 221.00 28.00 Z"/>
</g>
<g fill="None" fill-opacity="0.0" stroke="#CC1D28" stroke-opacity="0.47" stroke-width="0.3"><path d="
M 229.00 30.00 
C 229.51 29.82 231.19 31.45 231.00 32.00
C 232.71 32.58 234.11 34.06 236.00 34.00
C 234.16 31.89 233.33 29.30 237.00 31.00
C 237.68 29.21 235.72 28.90 235.00 28.00
C 234.69 27.90 231.63 28.05 231.00 28.00
C 230.76 28.08 229.21 29.72 229.00 30.00 Z"/>
</g>
<g fill="None" fill-opacity="0.0" stroke="#E12130" stroke-opacity="0.16" stroke-width="0.3"><path d="
M 228.00 32.00 
C 228.61 32.38 229.39 32.54 230.00 33.00
C 230.25 32.91 230.75 31.92 231.00 32.00
C 231.19 31.45 229.51 29.82 229.00 30.00
C 228.95 30.07 227.98 31.93 228.00 32.00 Z"/>
</g>
<g fill="None" fill-opacity="0.0" stroke="#E2212F" stroke-opacity="0.29" stroke-width="0.3"><path d="
M 238.00 30.00 
C 240.04 35.52 244.06 29.25 238.00 30.00 Z"/>
</g>
<g fill="None" fill-opacity="0.0" stroke="#D31E2A" stroke-opacity="0.42" stroke-width="0.3"><path d="
M 243.00 37.00 
C 245.11 36.26 246.79 41.11 247.00 42.00
C 245.50 41.01 251.27 42.75 253.00 44.00
C 252.80 43.61 253.00 43.00 253.00 43.00
C 251.61 40.77 249.67 38.94 248.29 36.71 C 246.92 34.47 241.92 34.30 243.00 37.00 Z"/>
</g>
<g fill="None" fill-opacity="0.0" stroke="#E3212E" stroke-opacity="0.45" stroke-width="0.3"><path d="
M 243.00 39.00 
C 242.73 40.26 242.38 39.39 242.00 39.00
C 240.12 39.85 243.73 42.40 245.00 42.00
C 245.68 40.21 243.71 39.90 243.00 39.00 Z"/>
</g>
<g fill="None" fill-opacity="0.0" stroke="#E4212E" stroke-opacity="0.59" stroke-width="0.3"><path d="
M 253.00 44.00 
C 254.97 46.01 251.54 46.84 252.00 49.00
C 253.42 49.51 254.58 50.48 256.00 51.00
C 256.65 49.74 257.67 48.50 259.00 48.00
C 256.62 46.42 255.61 44.73 253.00 43.00
C 253.00 43.00 252.80 43.61 253.00 44.00 Z"/>
</g>
<g fill="None" fill-opacity="0.0" stroke="#FEFDFD" stroke-opacity="1.00" stroke-width="0.3"><path d="
M 117.00 169.00 
C 115.07 155.04 115.99 139.86 118.61 126.75 C 121.22 113.64 122.46 104.08 127.02 91.02 C 131.59 77.97 133.33 68.06 138.08 54.08 C 142.82 40.09 120.80 44.90 111.23 50.23 C 101.66 55.56 87.96 58.33 80.92 67.92 C 73.87 77.51 83.74 94.07 86.07 104.93 C 88.41 115.79 94.47 129.74 99.08 139.92 C 103.68 150.11 108.84 162.80 117.00 169.00 Z"/>
</g>
<g fill="None" fill-opacity="0.0" stroke="#FEFDFD" stroke-opacity="1.00" stroke-width="0.3"><path d="
M 122.00 163.00 
C 122.12 164.59 121.26 167.21 123.00 168.00
C 127.17 165.06 128.62 154.85 132.70 150.70 C 136.77 146.54 139.01 139.55 142.70 134.70 C 146.39 129.84 149.57 123.69 154.23 119.23 C 158.89 114.77 161.87 109.43 166.25 105.25 C 170.63 101.06 175.02 96.96 179.75 92.75 C 184.49 88.55 189.25 84.60 194.25 80.25 C 199.25 75.89 202.84 73.41 207.75 67.75 C 212.66 62.09 203.58 58.68 198.03 55.97 C 192.47 53.27 184.63 50.30 178.23 48.77 C 171.83 47.24 164.79 42.40 158.08 45.08 C 151.36 47.75 150.79 56.15 148.26 62.26 C 145.72 68.37 144.24 74.23 141.78 79.78 C 139.31 85.33 138.35 93.91 135.97 99.97 C 133.60 106.04 131.31 114.09 129.78 120.78 C 128.25 127.47 125.12 134.14 124.00 141.00 C 122.88 147.85 121.53 156.53 122.00 163.00 Z"/>
</g>
<g fill="None" fill-opacity="0.0" stroke="#DC202C" stroke-opacity="0.38" stroke-width="0.3"><path d="
M 256.00 51.00 
C 262.31 48.77 262.37 60.19 269.00 60.00
C 266.39 56.62 263.65 53.41 261.00 50.00
C 262.82 49.61 263.54 51.44 265.00 52.00
C 265.03 52.01 266.02 51.06 266.00 51.00
C 264.17 49.39 260.97 47.27 259.00 48.00
C 257.67 48.50 256.65 49.74 256.00 51.00 Z"/>
</g>
<g fill="None" fill-opacity="0.0" stroke="#E4212E" stroke-opacity="0.64" stroke-width="0.3"><path d="
M 265.00 52.00 
C 265.27 55.22 269.25 55.69 269.00 52.00
C 267.80 52.58 266.97 51.06 266.00 51.00
C 266.02 51.06 265.03 52.01 265.00 52.00 Z"/>
</g>
<g fill="None" fill-opacity="0.0" stroke="#E31D29" stroke-opacity="0.56" stroke-width="0.3"><path d="
M 42.00 56.00 
C 42.29 55.36 43.72 55.12 44.00 54.00
C 44.81 50.71 42.30 54.18 42.00 56.00 Z"/>
</g>
<g fill="None" fill-opacity="0.0" stroke="#E5212E" stroke-opacity="0.47" stroke-width="0.3"><path d="
M 265.00 62.00 
C 264.94 59.61 262.33 57.14 260.00 57.00
C 260.02 59.80 262.26 61.97 265.00 62.00 Z"/>
</g>
<g fill="None" fill-opacity="0.0" stroke="#E4212E" stroke-opacity="0.28" stroke-width="0.3"><path d="
M 275.00 63.00 
C 272.18 58.12 269.24 62.61 275.00 63.00 Z"/>
</g>
<g fill="None" fill-opacity="0.0" stroke="#E5222E" stroke-opacity="0.49" stroke-width="0.3"><path d="
M 272.00 66.00 
C 272.38 66.43 273.46 66.87 274.00 67.00
C 274.62 64.54 272.84 63.76 271.00 63.00
C 270.40 64.19 271.97 65.05 272.00 66.00 Z"/>
</g>
<g fill="None" fill-opacity="0.0" stroke="#E0202F" stroke-opacity="0.18" stroke-width="0.3"><path d="
M 272.00 70.00 
C 272.22 69.73 273.94 69.16 274.00 69.00
C 274.17 68.57 274.03 67.50 274.00 67.00
C 273.46 66.87 272.38 66.43 272.00 66.00
C 272.05 67.79 272.50 68.00 272.00 70.00 Z"/>
</g>
<g fill="None" fill-opacity="0.0" stroke="#E4222E" stroke-opacity="0.46" stroke-width="0.3"><path d="
M 272.00 70.00 
C 271.98 70.10 271.40 73.27 271.00 73.00
C 271.45 72.85 272.82 73.24 273.00 73.00
C 273.57 69.26 278.05 76.14 281.00 76.00
C 281.15 71.05 275.84 73.04 274.00 69.00
C 273.94 69.16 272.22 69.73 272.00 70.00 Z"/>
</g>
<g fill="None" fill-opacity="0.0" stroke="#FEFEFE" stroke-opacity="1.00" stroke-width="0.3"><path d="
M 255.00 154.00 
C 255.29 148.75 255.20 143.26 255.00 138.00
C 254.30 119.72 246.87 107.66 238.92 92.08 C 230.97 76.50 216.71 71.32 204.08 82.08 C 191.45 92.83 181.77 98.50 171.25 110.25 C 160.73 122.00 152.64 132.24 143.92 143.92 C 135.19 155.60 123.03 172.77 134.25 184.75 C 145.47 196.74 155.06 204.74 168.25 211.75 C 181.45 218.75 194.75 231.28 210.00 231.00 C 225.24 230.71 233.10 212.33 241.08 201.08 C 249.05 189.82 254.23 168.24 255.00 154.00 Z"/>
</g>
<g fill="None" fill-opacity="0.0" stroke="#E5222D" stroke-opacity="0.53" stroke-width="0.3"><path d="
M 280.00 80.00 
C 277.59 73.89 273.31 81.30 280.00 80.00 Z"/>
</g>
<g fill="None" fill-opacity="0.0" stroke="#FEFDFD" stroke-opacity="1.00" stroke-width="0.3"><path d="
M 44.00 134.00 
C 43.28 137.93 42.54 142.95 43.00 147.00
C 46.12 159.04 60.67 159.89 70.78 164.22 C 80.89 168.56 93.55 173.77 105.00 174.00
C 106.77 174.04 111.51 174.85 113.00 174.00
C 114.84 172.16 102.73 162.10 100.77 157.23 C 98.82 152.36 92.59 143.99 89.92 138.08 C 87.26 132.16 83.45 122.77 80.32 116.68 C 77.19 110.59 74.97 100.93 71.77 95.23 C 68.57 89.53 65.73 75.45 58.97 88.97 C 52.22 102.49 48.31 119.18 44.00 134.00 Z"/>
</g>
<g fill="None" fill-opacity="0.0" stroke="#DA1F2C" stroke-opacity="0.40" stroke-width="0.3"><path d="
M 290.00 88.00 
C 287.23 86.97 284.86 88.12 282.00 87.00
C 281.98 92.19 291.41 95.19 290.00 88.00 Z"/>
</g>
<g fill="None" fill-opacity="0.0" stroke="#E4212F" stroke-opacity="0.40" stroke-width="0.3"><path d="
M 293.00 100.00 
C 293.10 96.74 290.00 94.22 288.00 93.00
C 285.46 97.40 290.32 98.50 293.00 100.00 Z"/>
</g>
<g fill="None" fill-opacity="0.0" stroke="#E4202D" stroke-opacity="0.32" stroke-width="0.3"><path d="
M 287.00 110.00 
C 287.24 110.81 287.66 111.24 288.00 112.00
C 288.65 112.62 290.52 112.58 291.00 113.00
C 290.96 112.01 290.63 110.26 292.00 110.00
C 291.60 109.53 287.67 108.39 287.00 110.00 Z"/>
</g>
<g fill="None" fill-opacity="0.0" stroke="#E4212E" stroke-opacity="0.53" stroke-width="0.3"><path d="
M 291.00 113.00 
C 293.22 116.01 291.48 122.45 296.00 123.00
C 294.50 119.47 294.50 112.97 292.00 110.00
C 290.63 110.26 290.96 112.01 291.00 113.00 Z"/>
</g>
<g fill="None" fill-opacity="0.0" stroke="#B21620" stroke-opacity="0.44" stroke-width="0.3"><path d="
M 6.00 128.00 
C 6.67 125.92 8.52 122.54 7.00 121.00
C 5.51 122.80 3.65 126.19 6.00 128.00 Z"/>
</g>
<g fill="None" fill-opacity="0.0" stroke="#E4212E" stroke-opacity="0.31" stroke-width="0.3"><path d="
M 297.00 131.00 
C 296.56 125.25 292.11 128.14 297.00 131.00 Z"/>
</g>
<g fill="None" fill-opacity="0.0" stroke="#E3222F" stroke-opacity="0.36" stroke-width="0.3"><path d="
M 0.00 135.00 
C 0.50 135.00 1.00 135.00 1.00 135.00
C 1.05 133.67 0.94 132.33 1.00 131.00
C 1.00 131.00 0.50 131.00 0.00 131.00
L 0.00 135.00 Z"/>
</g>
<g fill="None" fill-opacity="0.0" stroke="#F39196" stroke-opacity="1.00" stroke-width="0.3"><path d="
M 43.00 147.00 
C 42.54 142.95 43.28 137.93 44.00 134.00
C 42.72 138.39 41.83 142.49 43.00 147.00 Z"/>
</g>
<g fill="None" fill-opacity="0.0" stroke="#E5212D" stroke-opacity="0.73" stroke-width="0.3"><path d="
M 0.00 139.00 
C 1.60 138.49 0.95 136.28 1.00 135.00
C 1.00 135.00 0.50 135.00 0.00 135.00
L 0.00 139.00 Z"/>
</g>
<g fill="None" fill-opacity="0.0" stroke="#EF7176" stroke-opacity="1.00" stroke-width="0.3"><path d="
M 255.00 154.00 
C 255.83 148.89 255.74 143.16 255.00 138.00
C 255.20 143.26 255.29 148.75 255.00 154.00 Z"/>
</g>
<g fill="None" fill-opacity="0.0" stroke="#E5212D" stroke-opacity="0.75" stroke-width="0.3"><path d="
M 0.00 152.00 
C 1.57 151.58 1.34 148.47 0.00 148.00
L 0.00 152.00 Z"/>
</g>
<g fill="None" fill-opacity="0.0" stroke="#D11E2A" stroke-opacity="0.36" stroke-width="0.3"><path d="
M 303.00 154.00 
L 303.00 152.00
C 299.78 152.58 297.34 153.18 298.00 157.00
C 301.60 158.41 300.20 153.55 303.00 154.00 Z"/>
</g>
<g fill="None" fill-opacity="0.0" stroke="#000000" stroke-opacity="0.00" stroke-width="0.3"><path d="
M 0.00 162.00 
C 1.72 160.43 1.50 155.64 0.00 154.00
L 0.00 162.00 Z"/>
</g>
<g fill="None" fill-opacity="0.0" stroke="#E4212F" stroke-opacity="0.36" stroke-width="0.3"><path d="
M 302.00 159.00 
C 297.44 161.24 302.77 164.74 302.00 159.00 Z"/>
</g>
<g fill="None" fill-opacity="0.0" stroke="#FEFDFD" stroke-opacity="1.00" stroke-width="0.3"><path d="
M 75.00 222.00 
C 76.49 223.27 77.71 224.66 79.00 226.00
C 92.71 237.97 110.64 250.72 129.00 249.00
C 113.75 237.04 95.35 221.99 88.78 202.22 C 82.21 182.45 66.93 162.63 44.00 161.00
C 41.34 183.58 57.38 206.94 75.00 222.00 Z"/>
</g>
<g fill="None" fill-opacity="0.0" stroke="#F17C80" stroke-opacity="1.00" stroke-width="0.3"><path d="
M 123.00 168.00 
C 121.26 167.21 122.12 164.59 122.00 163.00
C 121.93 163.95 119.26 170.63 123.00 168.00 Z"/>
</g>
<g fill="None" fill-opacity="0.0" stroke="#000000" stroke-opacity="0.00" stroke-width="0.3"><path d="
M 0.00 305.00 
L 142.00 305.00
C 142.00 304.50 142.00 304.00 142.00 304.00
C 135.34 303.69 126.72 303.19 120.69 301.31 C 114.67 299.42 108.67 295.42 102.22 297.22 C 95.77 299.02 91.61 294.33 86.23 291.77 C 80.85 289.21 76.49 286.47 71.25 283.75 C 66.01 281.04 64.13 275.40 58.68 273.32 C 53.23 271.24 49.57 266.27 44.75 263.25 C 39.93 260.23 37.62 254.69 34.75 250.25 C 31.88 245.81 25.92 242.70 24.92 237.08 C 23.92 231.46 15.66 230.37 14.78 224.22 C 13.90 218.08 11.37 214.24 7.92 210.08 C 4.47 205.92 3.57 197.50 1.00 196.00
C 4.84 184.61 3.03 173.81 0.00 164.00
L 0.00 305.00 Z"/>
</g>
<g fill="None" fill-opacity="0.0" stroke="#F7BFC2" stroke-opacity="1.00" stroke-width="0.3"><path d="
M 113.00 174.00 
C 111.51 174.85 106.77 174.04 105.00 174.00
C 107.18 174.26 110.68 176.32 113.00 174.00 Z"/>
</g>
<g fill="None" fill-opacity="0.0" stroke="#FEFDFD" stroke-opacity="1.00" stroke-width="0.3"><path d="
M 206.00 238.00 
C 172.56 218.70 135.90 206.80 97.00 204.00
C 100.31 219.65 115.56 228.73 126.77 239.23 C 137.98 249.73 161.43 247.68 165.00 264.00
C 172.23 260.48 177.82 254.09 184.26 249.26 C 190.69 244.42 204.02 247.40 206.00 238.00 Z"/>
</g>
<g fill="None" fill-opacity="0.0" stroke="#F9C8CB" stroke-opacity="1.00" stroke-width="0.3"><path d="
M 79.00 226.00 
C 77.71 224.66 76.49 223.27 75.00 222.00
C 76.28 223.28 77.58 224.74 79.00 226.00 Z"/>
</g>
<g fill="None" fill-opacity="0.0" stroke="#E12330" stroke-opacity="0.20" stroke-width="0.3"><path d="
M 142.00 305.00 
L 146.00 305.00
C 146.00 304.50 146.00 304.00 146.00 304.00
C 144.67 304.00 143.33 304.00 142.00 304.00
C 142.00 304.00 142.00 304.50 142.00 305.00 Z"/>
</g>
<g fill="None" fill-opacity="0.0" stroke="#E4222E" stroke-opacity="0.50" stroke-width="0.3"><path d="
M 146.00 305.00 
L 150.00 305.00
C 150.00 304.50 150.00 304.00 150.00 304.00
C 148.67 304.00 147.33 304.00 146.00 304.00
C 146.00 304.00 146.00 304.50 146.00 305.00 Z"/>
</g>
<g fill="None" fill-opacity="0.0" stroke="#E5212D" stroke-opacity="0.73" stroke-width="0.3"><path d="
M 150.00 305.00 
L 160.00 305.00
C 160.00 304.50 160.00 304.00 160.00 304.00
C 156.69 303.81 153.31 304.00 150.00 304.00
C 150.00 304.00 150.00 304.50 150.00 305.00 Z"/>
</g>
<g fill="None" fill-opacity="0.0" stroke="#E4222E" stroke-opacity="0.50" stroke-width="0.3"><path d="
M 160.00 305.00 
L 164.00 305.00
C 163.49 303.38 161.29 304.07 160.00 304.00
C 160.00 304.00 160.00 304.50 160.00 305.00 Z"/>
</g>
<g fill="#000000" fill-opacity="0.00" stroke="None">
<path d="
M 0.00 131.00 
C 0.50 131.00 1.00 131.00 1.00 131.00
C 1.41 121.95 2.11 107.22 7.31 99.31 C 12.50 91.39 15.38 84.05 21.75 74.75 C 28.12 65.46 35.49 59.70 39.00 49.00
C 42.10 55.28 43.35 45.73 47.30 44.30 C 51.24 42.86 52.52 36.61 56.25 34.25 C 59.98 31.89 65.95 29.85 63.00 25.00
C 75.62 25.21 83.02 13.57 95.00 12.00 C 106.98 10.43 116.67 2.27 128.00 0.00
L 0.00 0.00
L 0.00 131.00 Z"/>
</g>
<g fill="#E4212D" fill-opacity="0.94" stroke="None">
<path d="
M 1.00 131.00 
C 0.94 132.33 1.05 133.67 1.00 135.00
C 0.95 136.28 1.60 138.49 0.00 139.00
L 0.00 148.00
C 1.34 148.47 1.57 151.58 0.00 152.00
L 0.00 154.00
C 1.50 155.64 1.72 160.43 0.00 162.00
L 0.00 164.00
C 3.03 173.81 4.84 184.61 1.00 196.00
C 3.57 197.50 4.47 205.92 7.92 210.08 C 11.37 214.24 13.90 218.08 14.78 224.22 C 15.66 230.37 23.92 231.46 24.92 237.08 C 25.92 242.70 31.88 245.81 34.75 250.25 C 37.62 254.69 39.93 260.23 44.75 263.25 C 49.57 266.27 53.23 271.24 58.68 273.32 C 64.13 275.40 66.01 281.04 71.25 283.75 C 76.49 286.47 80.85 289.21 86.23 291.77 C 91.61 294.33 95.77 299.02 102.22 297.22 C 108.67 295.42 114.67 299.42 120.69 301.31 C 126.72 303.19 135.34 303.69 142.00 304.00
C 143.33 304.00 144.67 304.00 146.00 304.00
C 147.33 304.00 148.67 304.00 150.00 304.00
C 153.31 304.00 156.69 303.81 160.00 304.00
C 161.29 304.07 163.49 303.38 164.00 305.00
L 166.00 305.00
C 166.53 303.72 165.03 303.14 165.00 302.00
C 168.11 301.71 170.72 306.38 176.22 303.22 C 181.72 300.06 185.70 300.80 192.00 300.00
C 197.09 292.93 212.32 292.40 220.25 285.25 C 228.18 278.09 241.56 276.19 248.03 268.03 C 254.50 259.87 267.22 254.10 268.00 244.00
C 275.15 238.61 278.31 229.78 283.77 220.77 C 289.23 211.76 290.46 200.59 294.78 190.78 C 299.09 180.96 299.47 168.35 298.00 158.00
C 296.66 158.73 295.36 159.34 294.00 160.00
C 292.21 168.10 284.69 176.91 285.22 186.22 C 285.76 195.54 276.23 202.03 275.80 210.25 C 275.38 218.46 266.02 223.74 265.00 232.00
C 256.61 237.63 248.74 248.92 240.25 258.25 C 231.76 267.58 219.46 273.08 211.00 282.00
C 205.61 277.08 198.86 285.54 193.00 286.00
C 194.24 288.92 197.79 283.99 199.00 287.00
C 194.80 291.55 187.53 287.54 183.26 288.60 C 178.98 289.66 169.42 288.57 172.00 294.00
C 170.01 294.80 164.09 295.91 168.00 293.00
C 163.54 295.61 156.17 288.24 150.00 291.00 C 143.83 293.77 140.15 289.76 133.32 289.68 C 126.49 289.59 121.98 289.95 115.00 290.00
C 117.94 284.26 102.81 287.26 100.00 284.00
C 111.05 282.68 92.57 280.84 89.00 279.00
C 89.74 273.09 77.26 270.19 73.10 266.90 C 68.94 263.60 60.20 259.77 58.00 253.00
C 51.98 257.68 51.64 246.02 45.00 245.00
C 46.04 237.81 39.14 233.64 34.30 229.70 C 29.46 225.76 27.98 216.00 22.00 212.00
C 24.11 210.40 24.23 207.52 21.00 205.00
C 23.76 202.24 21.89 199.02 22.00 195.00
C 21.54 202.97 15.63 196.99 17.00 192.00 C 18.38 187.01 12.77 184.00 17.00 179.00
C 8.41 178.71 15.35 161.77 8.00 158.00
C 12.24 149.14 8.83 139.45 11.00 131.00
C 8.40 133.18 7.73 127.89 8.00 126.00
C 11.83 130.21 15.16 120.35 15.98 115.98 C 16.79 111.60 11.72 100.25 18.00 98.00
C 19.45 101.26 17.52 105.44 17.00 109.00
C 20.91 107.95 17.34 100.09 23.00 99.00
C 20.17 93.64 25.73 84.07 30.23 80.23 C 34.73 76.40 37.76 63.71 42.00 66.00
C 42.00 62.67 42.00 59.33 42.00 56.00
C 42.30 54.18 44.81 50.71 44.00 54.00
C 46.25 53.25 48.71 57.11 48.00 59.00
C 51.59 57.11 52.22 55.25 49.00 53.00
C 52.66 52.81 57.10 51.30 55.00 47.00
C 57.67 48.57 60.03 47.32 60.00 44.00
C 70.77 49.34 70.10 24.63 79.00 34.00
C 80.42 30.30 81.10 25.80 84.00 23.00
C 85.47 21.04 87.06 18.32 90.00 19.00
C 89.05 19.87 89.46 21.68 88.00 22.00
C 86.87 25.62 84.92 28.70 83.00 32.00
C 88.28 33.84 93.38 30.81 96.00 26.00
C 93.34 25.52 92.68 29.53 90.00 29.00
C 90.31 24.41 94.98 21.78 99.00 21.00
C 99.64 29.92 110.63 15.47 117.00 21.00
C 115.33 18.49 113.43 16.03 113.00 13.00
C 113.18 12.03 112.86 10.97 113.00 10.00
C 114.78 10.25 118.36 8.97 118.00 12.00
C 123.62 10.74 124.84 11.71 122.00 17.00
C 129.92 18.11 135.36 9.95 141.70 8.70 C 148.03 7.44 158.19 12.19 165.00 13.00
C 164.76 10.35 167.92 9.27 170.00 9.00
C 175.84 7.95 178.80 10.89 184.00 11.00
C 185.33 11.03 186.67 11.00 188.00 11.00
C 191.55 11.01 197.11 10.96 198.00 15.00
C 195.65 17.35 193.54 13.77 191.00 14.00
C 190.94 13.90 188.53 15.37 189.00 16.00
C 197.20 15.94 204.91 24.30 212.00 23.00
C 214.55 22.76 216.87 22.05 220.00 23.00
C 220.35 23.11 220.80 23.69 221.00 24.00
C 221.15 24.23 222.18 26.34 222.00 27.00
C 224.11 27.58 225.45 30.43 228.00 30.00
C 225.61 26.75 228.69 27.74 231.00 28.00
C 231.63 28.05 234.69 27.90 235.00 28.00
C 231.54 23.64 222.30 17.86 215.00 16.00
C 215.22 16.14 215.00 17.00 215.00 17.00
C 212.14 19.94 209.00 15.57 212.00 13.00
C 191.47 6.21 169.70 1.33 148.00 1.00
C 146.71 0.85 144.51 1.67 144.00 0.00
L 128.00 0.00
C 116.67 2.27 106.98 10.43 95.00 12.00 C 83.02 13.57 75.62 25.21 63.00 25.00
C 65.95 29.85 59.98 31.89 56.25 34.25 C 52.52 36.61 51.24 42.86 47.30 44.30 C 43.35 45.73 42.10 55.28 39.00 49.00
C 35.49 59.70 28.12 65.46 21.75 74.75 C 15.38 84.05 12.50 91.39 7.31 99.31 C 2.11 107.22 1.41 121.95 1.00 131.00
M 212.00 22.00 
C 208.63 24.47 209.41 18.66 212.00 22.00
M 6.00 128.00 
C 3.65 126.19 5.51 122.80 7.00 121.00
C 8.52 122.54 6.67 125.92 6.00 128.00 Z"/>
</g>
<g fill="#E32330" fill-opacity="0.24" stroke="None">
<path d="
M 148.00 1.00 
C 147.94 0.99 148.00 0.00 148.00 0.00
L 144.00 0.00
C 144.51 1.67 146.71 0.85 148.00 1.00 Z"/>
</g>
<g fill="#000000" fill-opacity="0.00" stroke="None">
<path d="
M 148.00 1.00 
C 169.70 1.33 191.47 6.21 212.00 13.00
C 209.00 15.57 212.14 19.94 215.00 17.00
C 213.98 16.73 213.25 15.60 212.00 16.00
C 212.22 14.72 214.81 14.58 215.00 16.00
C 222.30 17.86 231.54 23.64 235.00 28.00
C 235.72 28.90 237.68 29.21 237.00 31.00
C 233.33 29.30 234.16 31.89 236.00 34.00
C 234.11 34.06 232.71 32.58 231.00 32.00
C 230.75 31.92 230.25 32.91 230.00 33.00
C 233.65 35.74 239.22 36.14 242.00 39.00
C 242.38 39.39 242.73 40.26 243.00 39.00
C 243.10 38.52 243.17 37.43 243.00 37.00
C 241.92 34.30 246.92 34.47 248.29 36.71 C 249.67 38.94 251.61 40.77 253.00 43.00
C 255.61 44.73 256.62 46.42 259.00 48.00
C 260.97 47.27 264.17 49.39 266.00 51.00
C 266.97 51.06 267.80 52.58 269.00 52.00
C 269.25 55.69 265.27 55.22 265.00 52.00
C 263.54 51.44 262.82 49.61 261.00 50.00
C 263.65 53.41 266.39 56.62 269.00 60.00
C 262.37 60.19 262.31 48.77 256.00 51.00
C 254.58 50.48 253.42 49.51 252.00 49.00
C 251.54 46.84 254.97 46.01 253.00 44.00
C 251.27 42.75 245.50 41.01 247.00 42.00
C 247.92 45.81 253.45 55.13 258.25 57.75 C 263.05 60.37 267.10 74.26 271.00 73.00
C 271.40 73.27 271.98 70.10 272.00 70.00
C 272.50 68.00 272.05 67.79 272.00 66.00
C 271.97 65.05 270.40 64.19 271.00 63.00
C 272.84 63.76 274.62 64.54 274.00 67.00
C 274.03 67.50 274.17 68.57 274.00 69.00
C 275.84 73.04 281.15 71.05 281.00 76.00
C 278.05 76.14 273.57 69.26 273.00 73.00
C 276.57 75.48 275.74 85.91 279.77 90.23 C 283.80 94.55 285.40 104.49 287.00 110.00
C 287.67 108.39 291.60 109.53 292.00 110.00
C 294.50 112.97 294.50 119.47 296.00 123.00
C 291.48 122.45 293.22 116.01 291.00 113.00
C 290.52 112.58 288.65 112.62 288.00 112.00
C 293.28 123.95 296.99 146.52 294.00 160.00
C 295.36 159.34 296.66 158.73 298.00 158.00
C 299.47 168.35 299.09 180.96 294.78 190.78 C 290.46 200.59 289.23 211.76 283.77 220.77 C 278.31 229.78 275.15 238.61 268.00 244.00
C 267.22 254.10 254.50 259.87 248.03 268.03 C 241.56 276.19 228.18 278.09 220.25 285.25 C 212.32 292.40 197.09 292.93 192.00 300.00
C 185.70 300.80 181.72 300.06 176.22 303.22 C 170.72 306.38 168.11 301.71 165.00 302.00
C 165.03 303.14 166.53 303.72 166.00 305.00
L 303.00 305.00
L 303.00 154.00
C 300.20 153.55 301.60 158.41 298.00 157.00
C 297.34 153.18 299.78 152.58 303.00 152.00
L 303.00 0.00
L 148.00 0.00
C 148.00 0.00 147.94 0.99 148.00 1.00
M 238.00 30.00 
C 244.06 29.25 240.04 35.52 238.00 30.00
M 265.00 62.00 
C 262.26 61.97 260.02 59.80 260.00 57.00
C 262.33 57.14 264.94 59.61 265.00 62.00
M 275.00 63.00 
C 269.24 62.61 272.18 58.12 275.00 63.00
M 280.00 80.00 
C 273.31 81.30 277.59 73.89 280.00 80.00
M 290.00 88.00 
C 291.41 95.19 281.98 92.19 282.00 87.00
C 284.86 88.12 287.23 86.97 290.00 88.00
M 293.00 100.00 
C 290.32 98.50 285.46 97.40 288.00 93.00
C 290.00 94.22 293.10 96.74 293.00 100.00
M 297.00 131.00 
C 292.11 128.14 296.56 125.25 297.00 131.00
M 302.00 159.00 
C 302.77 164.74 297.44 161.24 302.00 159.00 Z"/>
</g>
<g fill="#E20E17" fill-opacity="1.00" stroke="None">
<path d="
M 118.00 12.00 
C 116.33 12.37 114.85 13.18 113.00 13.00
C 113.43 16.03 115.33 18.49 117.00 21.00
C 110.63 15.47 99.64 29.92 99.00 21.00
C 94.98 21.78 90.31 24.41 90.00 29.00
C 92.68 29.53 93.34 25.52 96.00 26.00
C 93.38 30.81 88.28 33.84 83.00 32.00
C 84.92 28.70 86.87 25.62 88.00 22.00
C 86.99 22.95 83.81 23.13 84.00 23.00
C 81.10 25.80 80.42 30.30 79.00 34.00
C 70.10 24.63 70.77 49.34 60.00 44.00
C 60.03 47.32 57.67 48.57 55.00 47.00
C 57.10 51.30 52.66 52.81 49.00 53.00
C 52.22 55.25 51.59 57.11 48.00 59.00
C 48.71 57.11 46.25 53.25 44.00 54.00
C 43.72 55.12 42.29 55.36 42.00 56.00
C 42.00 59.33 42.00 62.67 42.00 66.00
C 37.76 63.71 34.73 76.40 30.23 80.23 C 25.73 84.07 20.17 93.64 23.00 99.00
C 17.34 100.09 20.91 107.95 17.00 109.00
C 17.52 105.44 19.45 101.26 18.00 98.00
C 11.72 100.25 16.79 111.60 15.98 115.98 C 15.16 120.35 11.83 130.21 8.00 126.00
C 7.73 127.89 8.40 133.18 11.00 131.00
C 8.83 139.45 12.24 149.14 8.00 158.00
C 15.35 161.77 8.41 178.71 17.00 179.00
C 12.77 184.00 18.38 187.01 17.00 192.00 C 15.63 196.99 21.54 202.97 22.00 195.00
C 21.89 199.02 23.76 202.24 21.00 205.00
C 24.23 207.52 24.11 210.40 22.00 212.00
C 27.98 216.00 29.46 225.76 34.30 229.70 C 39.14 233.64 46.04 237.81 45.00 245.00
C 51.64 246.02 51.98 257.68 58.00 253.00
C 60.20 259.77 68.94 263.60 73.10 266.90 C 77.26 270.19 89.74 273.09 89.00 279.00
C 92.57 280.84 111.05 282.68 100.00 284.00
C 102.81 287.26 117.94 284.26 115.00 290.00
C 121.98 289.95 126.49 289.59 133.32 289.68 C 140.15 289.76 143.83 293.77 150.00 291.00 C 156.17 288.24 163.54 295.61 168.00 293.00
C 164.09 295.91 170.01 294.80 172.00 294.00
C 169.42 288.57 178.98 289.66 183.26 288.60 C 187.53 287.54 194.80 291.55 199.00 287.00
C 197.79 283.99 194.24 288.92 193.00 286.00
C 198.86 285.54 205.61 277.08 211.00 282.00
C 219.46 273.08 231.76 267.58 240.25 258.25 C 248.74 248.92 256.61 237.63 265.00 232.00
C 266.02 223.74 275.38 218.46 275.80 210.25 C 276.23 202.03 285.76 195.54 285.22 186.22 C 284.69 176.91 292.21 168.10 294.00 160.00
C 296.99 146.52 293.28 123.95 288.00 112.00
C 287.66 111.24 287.24 110.81 287.00 110.00
C 285.40 104.49 283.80 94.55 279.77 90.23 C 275.74 85.91 276.57 75.48 273.00 73.00
C 272.82 73.24 271.45 72.85 271.00 73.00
C 267.10 74.26 263.05 60.37 258.25 57.75 C 253.45 55.13 247.92 45.81 247.00 42.00
C 246.79 41.11 245.11 36.26 243.00 37.00
C 243.17 37.43 243.10 38.52 243.00 39.00
C 243.71 39.90 245.68 40.21 245.00 42.00
C 243.73 42.40 240.12 39.85 242.00 39.00
C 239.22 36.14 233.65 35.74 230.00 33.00
C 229.39 32.54 228.61 32.38 228.00 32.00
C 225.66 30.54 223.57 29.01 221.00 28.00
C 220.57 27.83 220.00 28.00 220.00 28.00
C 218.60 27.13 215.50 23.67 216.00 24.00
C 215.13 23.90 213.51 23.00 212.00 23.00
C 204.91 24.30 197.20 15.94 189.00 16.00
C 188.53 15.37 190.94 13.90 191.00 14.00
C 189.97 13.58 189.60 12.92 188.00 13.00
C 187.08 13.04 187.03 13.21 186.00 13.00
C 181.01 11.98 173.75 8.72 170.00 9.00
C 167.92 9.27 164.76 10.35 165.00 13.00
C 158.19 12.19 148.03 7.44 141.70 8.70 C 135.36 9.95 129.92 18.11 122.00 17.00
C 124.84 11.71 123.62 10.74 118.00 12.00
M 117.00 169.00 
C 108.84 162.80 103.68 150.11 99.08 139.92 C 94.47 129.74 88.41 115.79 86.07 104.93 C 83.74 94.07 73.87 77.51 80.92 67.92 C 87.96 58.33 101.66 55.56 111.23 50.23 C 120.80 44.90 142.82 40.09 138.08 54.08 C 133.33 68.06 131.59 77.97 127.02 91.02 C 122.46 104.08 121.22 113.64 118.61 126.75 C 115.99 139.86 115.07 155.04 117.00 169.00
M 123.00 168.00 
C 119.26 170.63 121.93 163.95 122.00 163.00
C 121.53 156.53 122.88 147.85 124.00 141.00 C 125.12 134.14 128.25 127.47 129.78 120.78 C 131.31 114.09 133.60 106.04 135.97 99.97 C 138.35 93.91 139.31 85.33 141.78 79.78 C 144.24 74.23 145.72 68.37 148.26 62.26 C 150.79 56.15 151.36 47.75 158.08 45.08 C 164.79 42.40 171.83 47.24 178.23 48.77 C 184.63 50.30 192.47 53.27 198.03 55.97 C 203.58 58.68 212.66 62.09 207.75 67.75 C 202.84 73.41 199.25 75.89 194.25 80.25 C 189.25 84.60 184.49 88.55 179.75 92.75 C 175.02 96.96 170.63 101.06 166.25 105.25 C 161.87 109.43 158.89 114.77 154.23 119.23 C 149.57 123.69 146.39 129.84 142.70 134.70 C 139.01 139.55 136.77 146.54 132.70 150.70 C 128.62 154.85 127.17 165.06 123.00 168.00
M 255.00 138.00 
C 255.74 143.16 255.83 148.89 255.00 154.00
C 254.23 168.24 249.05 189.82 241.08 201.08 C 233.10 212.33 225.24 230.71 210.00 231.00 C 194.75 231.28 181.45 218.75 168.25 211.75 C 155.06 204.74 145.47 196.74 134.25 184.75 C 123.03 172.77 135.19 155.60 143.92 143.92 C 152.64 132.24 160.73 122.00 171.25 110.25 C 181.77 98.50 191.45 92.83 204.08 82.08 C 216.71 71.32 230.97 76.50 238.92 92.08 C 246.87 107.66 254.30 119.72 255.00 138.00
M 113.00 174.00 
C 110.68 176.32 107.18 174.26 105.00 174.00
C 93.55 173.77 80.89 168.56 70.78 164.22 C 60.67 159.89 46.12 159.04 43.00 147.00
C 41.83 142.49 42.72 138.39 44.00 134.00
C 48.31 119.18 52.22 102.49 58.97 88.97 C 65.73 75.45 68.57 89.53 71.77 95.23 C 74.97 100.93 77.19 110.59 80.32 116.68 C 83.45 122.77 87.26 132.16 89.92 138.08 C 92.59 143.99 98.82 152.36 100.77 157.23 C 102.73 162.10 114.84 172.16 113.00 174.00
M 79.00 226.00 
C 77.58 224.74 76.28 223.28 75.00 222.00
C 57.38 206.94 41.34 183.58 44.00 161.00
C 66.93 162.63 82.21 182.45 88.78 202.22 C 95.35 221.99 113.75 237.04 129.00 249.00
C 110.64 250.72 92.71 237.97 79.00 226.00
M 206.00 238.00 
C 204.02 247.40 190.69 244.42 184.26 249.26 C 177.82 254.09 172.23 260.48 165.00 264.00
C 161.43 247.68 137.98 249.73 126.77 239.23 C 115.56 228.73 100.31 219.65 97.00 204.00
C 135.90 206.80 172.56 218.70 206.00 238.00 Z"/>
</g>
<g fill="#000000" fill-opacity="0.00" stroke="None">
<path d="
M 186.00 13.00 
C 186.98 13.59 184.68 11.26 184.00 11.00
C 178.80 10.89 175.84 7.95 170.00 9.00
C 173.75 8.72 181.01 11.98 186.00 13.00 Z"/>
</g>
<g fill="#000000" fill-opacity="0.00" stroke="None">
<path d="
M 113.00 13.00 
C 114.85 13.18 116.33 12.37 118.00 12.00
C 118.36 8.97 114.78 10.25 113.00 10.00
C 112.86 10.97 113.18 12.03 113.00 13.00 Z"/>
</g>
<g fill="#E22130" fill-opacity="0.17" stroke="None">
<path d="
M 186.00 13.00 
C 187.03 13.21 187.08 13.04 188.00 13.00
C 188.13 12.54 188.24 11.32 188.00 11.00
C 186.67 11.00 185.33 11.03 184.00 11.00
C 184.68 11.26 186.98 13.59 186.00 13.00 Z"/>
</g>
<g fill="#000000" fill-opacity="0.00" stroke="None">
<path d="
M 188.00 13.00 
C 189.60 12.92 189.97 13.58 191.00 14.00
C 193.54 13.77 195.65 17.35 198.00 15.00
C 197.11 10.96 191.55 11.01 188.00 11.00
C 188.24 11.32 188.13 12.54 188.00 13.00 Z"/>
</g>
<g fill="#E2222F" fill-opacity="0.24" stroke="None">
<path d="
M 215.00 17.00 
C 215.00 17.00 215.22 16.14 215.00 16.00
C 214.81 14.58 212.22 14.72 212.00 16.00
C 213.25 15.60 213.98 16.73 215.00 17.00 Z"/>
</g>
<g fill="#000000" fill-opacity="0.01" stroke="None">
<path d="
M 84.00 23.00 
C 83.81 23.13 86.99 22.95 88.00 22.00
C 89.46 21.68 89.05 19.87 90.00 19.00
C 87.06 18.32 85.47 21.04 84.00 23.00 Z"/>
</g>
<g fill="#E5222E" fill-opacity="0.49" stroke="None">
<path d="
M 212.00 22.00 
C 209.41 18.66 208.63 24.47 212.00 22.00 Z"/>
</g>
<g fill="#000000" fill-opacity="0.00" stroke="None">
<path d="
M 212.00 23.00 
C 213.51 23.00 215.13 23.90 216.00 24.00
C 217.57 24.17 219.25 23.02 220.00 23.00
C 216.87 22.05 214.55 22.76 212.00 23.00 Z"/>
</g>
<g fill="#E4202B" fill-opacity="0.40" stroke="None">
<path d="
M 216.00 24.00 
C 215.50 23.67 218.60 27.13 220.00 28.00
C 219.57 25.59 219.87 26.17 221.00 24.00
C 220.80 23.69 220.35 23.11 220.00 23.00
C 219.25 23.02 217.57 24.17 216.00 24.00 Z"/>
</g>
<g fill="#E01B2B" fill-opacity="0.07" stroke="None">
<path d="
M 220.00 28.00 
C 220.00 28.00 220.57 27.83 221.00 28.00
C 221.26 27.88 221.93 27.24 222.00 27.00
C 222.18 26.34 221.15 24.23 221.00 24.00
C 219.87 26.17 219.57 25.59 220.00 28.00 Z"/>
</g>
<g fill="#000000" fill-opacity="0.02" stroke="None">
<path d="
M 221.00 28.00 
C 223.57 29.01 225.66 30.54 228.00 32.00
C 227.98 31.93 228.95 30.07 229.00 30.00
C 229.21 29.72 230.76 28.08 231.00 28.00
C 228.69 27.74 225.61 26.75 228.00 30.00
C 225.45 30.43 224.11 27.58 222.00 27.00
C 221.93 27.24 221.26 27.88 221.00 28.00 Z"/>
</g>
<g fill="#CC1D28" fill-opacity="0.47" stroke="None">
<path d="
M 229.00 30.00 
C 229.51 29.82 231.19 31.45 231.00 32.00
C 232.71 32.58 234.11 34.06 236.00 34.00
C 234.16 31.89 233.33 29.30 237.00 31.00
C 237.68 29.21 235.72 28.90 235.00 28.00
C 234.69 27.90 231.63 28.05 231.00 28.00
C 230.76 28.08 229.21 29.72 229.00 30.00 Z"/>
</g>
<g fill="#E12130" fill-opacity="0.16" stroke="None">
<path d="
M 228.00 32.00 
C 228.61 32.38 229.39 32.54 230.00 33.00
C 230.25 32.91 230.75 31.92 231.00 32.00
C 231.19 31.45 229.51 29.82 229.00 30.00
C 228.95 30.07 227.98 31.93 228.00 32.00 Z"/>
</g>
<g fill="#E2212F" fill-opacity="0.29" stroke="None">
<path d="
M 238.00 30.00 
C 240.04 35.52 244.06 29.25 238.00 30.00 Z"/>
</g>
<g fill="#D31E2A" fill-opacity="0.42" stroke="None">
<path d="
M 243.00 37.00 
C 245.11 36.26 246.79 41.11 247.00 42.00
C 245.50 41.01 251.27 42.75 253.00 44.00
C 252.80 43.61 253.00 43.00 253.00 43.00
C 251.61 40.77 249.67 38.94 248.29 36.71 C 246.92 34.47 241.92 34.30 243.00 37.00 Z"/>
</g>
<g fill="#E3212E" fill-opacity="0.45" stroke="None">
<path d="
M 243.00 39.00 
C 242.73 40.26 242.38 39.39 242.00 39.00
C 240.12 39.85 243.73 42.40 245.00 42.00
C 245.68 40.21 243.71 39.90 243.00 39.00 Z"/>
</g>
<g fill="#E4212E" fill-opacity="0.59" stroke="None">
<path d="
M 253.00 44.00 
C 254.97 46.01 251.54 46.84 252.00 49.00
C 253.42 49.51 254.58 50.48 256.00 51.00
C 256.65 49.74 257.67 48.50 259.00 48.00
C 256.62 46.42 255.61 44.73 253.00 43.00
C 253.00 43.00 252.80 43.61 253.00 44.00 Z"/>
</g>
<g fill="#FEFDFD" fill-opacity="1.00" stroke="None">
<path d="
M 117.00 169.00 
C 115.07 155.04 115.99 139.86 118.61 126.75 C 121.22 113.64 122.46 104.08 127.02 91.02 C 131.59 77.97 133.33 68.06 138.08 54.08 C 142.82 40.09 120.80 44.90 111.23 50.23 C 101.66 55.56 87.96 58.33 80.92 67.92 C 73.87 77.51 83.74 94.07 86.07 104.93 C 88.41 115.79 94.47 129.74 99.08 139.92 C 103.68 150.11 108.84 162.80 117.00 169.00 Z"/>
</g>
<g fill="#FEFDFD" fill-opacity="1.00" stroke="None">
<path d="
M 122.00 163.00 
C 122.12 164.59 121.26 167.21 123.00 168.00
C 127.17 165.06 128.62 154.85 132.70 150.70 C 136.77 146.54 139.01 139.55 142.70 134.70 C 146.39 129.84 149.57 123.69 154.23 119.23 C 158.89 114.77 161.87 109.43 166.25 105.25 C 170.63 101.06 175.02 96.96 179.75 92.75 C 184.49 88.55 189.25 84.60 194.25 80.25 C 199.25 75.89 202.84 73.41 207.75 67.75 C 212.66 62.09 203.58 58.68 198.03 55.97 C 192.47 53.27 184.63 50.30 178.23 48.77 C 171.83 47.24 164.79 42.40 158.08 45.08 C 151.36 47.75 150.79 56.15 148.26 62.26 C 145.72 68.37 144.24 74.23 141.78 79.78 C 139.31 85.33 138.35 93.91 135.97 99.97 C 133.60 106.04 131.31 114.09 129.78 120.78 C 128.25 127.47 125.12 134.14 124.00 141.00 C 122.88 147.85 121.53 156.53 122.00 163.00 Z"/>
</g>
<g fill="#DC202C" fill-opacity="0.38" stroke="None">
<path d="
M 256.00 51.00 
C 262.31 48.77 262.37 60.19 269.00 60.00
C 266.39 56.62 263.65 53.41 261.00 50.00
C 262.82 49.61 263.54 51.44 265.00 52.00
C 265.03 52.01 266.02 51.06 266.00 51.00
C 264.17 49.39 260.97 47.27 259.00 48.00
C 257.67 48.50 256.65 49.74 256.00 51.00 Z"/>
</g>
<g fill="#E4212E" fill-opacity="0.64" stroke="None">
<path d="
M 265.00 52.00 
C 265.27 55.22 269.25 55.69 269.00 52.00
C 267.80 52.58 266.97 51.06 266.00 51.00
C 266.02 51.06 265.03 52.01 265.00 52.00 Z"/>
</g>
<g fill="#E31D29" fill-opacity="0.56" stroke="None">
<path d="
M 42.00 56.00 
C 42.29 55.36 43.72 55.12 44.00 54.00
C 44.81 50.71 42.30 54.18 42.00 56.00 Z"/>
</g>
<g fill="#E5212E" fill-opacity="0.47" stroke="None">
<path d="
M 265.00 62.00 
C 264.94 59.61 262.33 57.14 260.00 57.00
C 260.02 59.80 262.26 61.97 265.00 62.00 Z"/>
</g>
<g fill="#E4212E" fill-opacity="0.28" stroke="None">
<path d="
M 275.00 63.00 
C 272.18 58.12 269.24 62.61 275.00 63.00 Z"/>
</g>
<g fill="#E5222E" fill-opacity="0.49" stroke="None">
<path d="
M 272.00 66.00 
C 272.38 66.43 273.46 66.87 274.00 67.00
C 274.62 64.54 272.84 63.76 271.00 63.00
C 270.40 64.19 271.97 65.05 272.00 66.00 Z"/>
</g>
<g fill="#E0202F" fill-opacity="0.18" stroke="None">
<path d="
M 272.00 70.00 
C 272.22 69.73 273.94 69.16 274.00 69.00
C 274.17 68.57 274.03 67.50 274.00 67.00
C 273.46 66.87 272.38 66.43 272.00 66.00
C 272.05 67.79 272.50 68.00 272.00 70.00 Z"/>
</g>
<g fill="#E4222E" fill-opacity="0.46" stroke="None">
<path d="
M 272.00 70.00 
C 271.98 70.10 271.40 73.27 271.00 73.00
C 271.45 72.85 272.82 73.24 273.00 73.00
C 273.57 69.26 278.05 76.14 281.00 76.00
C 281.15 71.05 275.84 73.04 274.00 69.00
C 273.94 69.16 272.22 69.73 272.00 70.00 Z"/>
</g>
<g fill="#FEFEFE" fill-opacity="1.00" stroke="None">
<path d="
M 255.00 154.00 
C 255.29 148.75 255.20 143.26 255.00 138.00
C 254.30 119.72 246.87 107.66 238.92 92.08 C 230.97 76.50 216.71 71.32 204.08 82.08 C 191.45 92.83 181.77 98.50 171.25 110.25 C 160.73 122.00 152.64 132.24 143.92 143.92 C 135.19 155.60 123.03 172.77 134.25 184.75 C 145.47 196.74 155.06 204.74 168.25 211.75 C 181.45 218.75 194.75 231.28 210.00 231.00 C 225.24 230.71 233.10 212.33 241.08 201.08 C 249.05 189.82 254.23 168.24 255.00 154.00 Z"/>
</g>
<g fill="#E5222D" fill-opacity="0.53" stroke="None">
<path d="
M 280.00 80.00 
C 277.59 73.89 273.31 81.30 280.00 80.00 Z"/>
</g>
<g fill="#FEFDFD" fill-opacity="1.00" stroke="None">
<path d="
M 44.00 134.00 
C 43.28 137.93 42.54 142.95 43.00 147.00
C 46.12 159.04 60.67 159.89 70.78 164.22 C 80.89 168.56 93.55 173.77 105.00 174.00
C 106.77 174.04 111.51 174.85 113.00 174.00
C 114.84 172.16 102.73 162.10 100.77 157.23 C 98.82 152.36 92.59 143.99 89.92 138.08 C 87.26 132.16 83.45 122.77 80.32 116.68 C 77.19 110.59 74.97 100.93 71.77 95.23 C 68.57 89.53 65.73 75.45 58.97 88.97 C 52.22 102.49 48.31 119.18 44.00 134.00 Z"/>
</g>
<g fill="#DA1F2C" fill-opacity="0.40" stroke="None">
<path d="
M 290.00 88.00 
C 287.23 86.97 284.86 88.12 282.00 87.00
C 281.98 92.19 291.41 95.19 290.00 88.00 Z"/>
</g>
<g fill="#E4212F" fill-opacity="0.40" stroke="None">
<path d="
M 293.00 100.00 
C 293.10 96.74 290.00 94.22 288.00 93.00
C 285.46 97.40 290.32 98.50 293.00 100.00 Z"/>
</g>
<g fill="#E4202D" fill-opacity="0.32" stroke="None">
<path d="
M 287.00 110.00 
C 287.24 110.81 287.66 111.24 288.00 112.00
C 288.65 112.62 290.52 112.58 291.00 113.00
C 290.96 112.01 290.63 110.26 292.00 110.00
C 291.60 109.53 287.67 108.39 287.00 110.00 Z"/>
</g>
<g fill="#E4212E" fill-opacity="0.53" stroke="None">
<path d="
M 291.00 113.00 
C 293.22 116.01 291.48 122.45 296.00 123.00
C 294.50 119.47 294.50 112.97 292.00 110.00
C 290.63 110.26 290.96 112.01 291.00 113.00 Z"/>
</g>
<g fill="#B21620" fill-opacity="0.44" stroke="None">
<path d="
M 6.00 128.00 
C 6.67 125.92 8.52 122.54 7.00 121.00
C 5.51 122.80 3.65 126.19 6.00 128.00 Z"/>
</g>
<g fill="#E4212E" fill-opacity="0.31" stroke="None">
<path d="
M 297.00 131.00 
C 296.56 125.25 292.11 128.14 297.00 131.00 Z"/>
</g>
<g fill="#E3222F" fill-opacity="0.36" stroke="None">
<path d="
M 0.00 135.00 
C 0.50 135.00 1.00 135.00 1.00 135.00
C 1.05 133.67 0.94 132.33 1.00 131.00
C 1.00 131.00 0.50 131.00 0.00 131.00
L 0.00 135.00 Z"/>
</g>
<g fill="#F39196" fill-opacity="1.00" stroke="None">
<path d="
M 43.00 147.00 
C 42.54 142.95 43.28 137.93 44.00 134.00
C 42.72 138.39 41.83 142.49 43.00 147.00 Z"/>
</g>
<g fill="#E5212D" fill-opacity="0.73" stroke="None">
<path d="
M 0.00 139.00 
C 1.60 138.49 0.95 136.28 1.00 135.00
C 1.00 135.00 0.50 135.00 0.00 135.00
L 0.00 139.00 Z"/>
</g>
<g fill="#EF7176" fill-opacity="1.00" stroke="None">
<path d="
M 255.00 154.00 
C 255.83 148.89 255.74 143.16 255.00 138.00
C 255.20 143.26 255.29 148.75 255.00 154.00 Z"/>
</g>
<g fill="#E5212D" fill-opacity="0.75" stroke="None">
<path d="
M 0.00 152.00 
C 1.57 151.58 1.34 148.47 0.00 148.00
L 0.00 152.00 Z"/>
</g>
<g fill="#D11E2A" fill-opacity="0.36" stroke="None">
<path d="
M 303.00 154.00 
L 303.00 152.00
C 299.78 152.58 297.34 153.18 298.00 157.00
C 301.60 158.41 300.20 153.55 303.00 154.00 Z"/>
</g>
<g fill="#000000" fill-opacity="0.00" stroke="None">
<path d="
M 0.00 162.00 
C 1.72 160.43 1.50 155.64 0.00 154.00
L 0.00 162.00 Z"/>
</g>
<g fill="#E4212F" fill-opacity="0.36" stroke="None">
<path d="
M 302.00 159.00 
C 297.44 161.24 302.77 164.74 302.00 159.00 Z"/>
</g>
<g fill="#FEFDFD" fill-opacity="1.00" stroke="None">
<path d="
M 75.00 222.00 
C 76.49 223.27 77.71 224.66 79.00 226.00
C 92.71 237.97 110.64 250.72 129.00 249.00
C 113.75 237.04 95.35 221.99 88.78 202.22 C 82.21 182.45 66.93 162.63 44.00 161.00
C 41.34 183.58 57.38 206.94 75.00 222.00 Z"/>
</g>
<g fill="#F17C80" fill-opacity="1.00" stroke="None">
<path d="
M 123.00 168.00 
C 121.26 167.21 122.12 164.59 122.00 163.00
C 121.93 163.95 119.26 170.63 123.00 168.00 Z"/>
</g>
<g fill="#000000" fill-opacity="0.00" stroke="None">
<path d="
M 0.00 305.00 
L 142.00 305.00
C 142.00 304.50 142.00 304.00 142.00 304.00
C 135.34 303.69 126.72 303.19 120.69 301.31 C 114.67 299.42 108.67 295.42 102.22 297.22 C 95.77 299.02 91.61 294.33 86.23 291.77 C 80.85 289.21 76.49 286.47 71.25 283.75 C 66.01 281.04 64.13 275.40 58.68 273.32 C 53.23 271.24 49.57 266.27 44.75 263.25 C 39.93 260.23 37.62 254.69 34.75 250.25 C 31.88 245.81 25.92 242.70 24.92 237.08 C 23.92 231.46 15.66 230.37 14.78 224.22 C 13.90 218.08 11.37 214.24 7.92 210.08 C 4.47 205.92 3.57 197.50 1.00 196.00
C 4.84 184.61 3.03 173.81 0.00 164.00
L 0.00 305.00 Z"/>
</g>
<g fill="#F7BFC2" fill-opacity="1.00" stroke="None">
<path d="
M 113.00 174.00 
C 111.51 174.85 106.77 174.04 105.00 174.00
C 107.18 174.26 110.68 176.32 113.00 174.00 Z"/>
</g>
<g fill="#FEFDFD" fill-opacity="1.00" stroke="None">
<path d="
M 206.00 238.00 
C 172.56 218.70 135.90 206.80 97.00 204.00
C 100.31 219.65 115.56 228.73 126.77 239.23 C 137.98 249.73 161.43 247.68 165.00 264.00
C 172.23 260.48 177.82 254.09 184.26 249.26 C 190.69 244.42 204.02 247.40 206.00 238.00 Z"/>
</g>
<g fill="#F9C8CB" fill-opacity="1.00" stroke="None">
<path d="
M 79.00 226.00 
C 77.71 224.66 76.49 223.27 75.00 222.00
C 76.28 223.28 77.58 224.74 79.00 226.00 Z"/>
</g>
<g fill="#E12330" fill-opacity="0.20" stroke="None">
<path d="
M 142.00 305.00 
L 146.00 305.00
C 146.00 304.50 146.00 304.00 146.00 304.00
C 144.67 304.00 143.33 304.00 142.00 304.00
C 142.00 304.00 142.00 304.50 142.00 305.00 Z"/>
</g>
<g fill="#E4222E" fill-opacity="0.50" stroke="None">
<path d="
M 146.00 305.00 
L 150.00 305.00
C 150.00 304.50 150.00 304.00 150.00 304.00
C 148.67 304.00 147.33 304.00 146.00 304.00
C 146.00 304.00 146.00 304.50 146.00 305.00 Z"/>
</g>
<g fill="#E5212D" fill-opacity="0.73" stroke="None">
<path d="
M 150.00 305.00 
L 160.00 305.00
C 160.00 304.50 160.00 304.00 160.00 304.00
C 156.69 303.81 153.31 304.00 150.00 304.00
C 150.00 304.00 150.00 304.50 150.00 305.00 Z"/>
</g>
<g fill="#E4222E" fill-opacity="0.50" stroke="None">
<path d="
M 160.00 305.00 
L 164.00 305.00
C 163.49 303.38 161.29 304.07 160.00 304.00
C 160.00 304.00 160.00 304.50 160.00 305.00 Z"/>
</g>
</svg>