<?xml version="1.0" standalone="no"?>
<!DOCTYPE svg PUBLIC "-//W3C//DTD SVG 20010904//EN"
 "http://www.w3.org/TR/2001/REC-SVG-20010904/DTD/svg10.dtd">
<svg version="1.0" xmlns="http://www.w3.org/2000/svg"
 width="2400.000000pt" height="1013.000000pt" viewBox="0 0 2400.000000 1013.000000"
 preserveAspectRatio="xMidYMid meet">

<g transform="translate(0.000000,1013.000000) scale(0.100000,-0.100000)"
fill="#000000" stroke="none">
<path d="M7115 9824 c-379 -39 -688 -128 -1043 -299 -128 -62 -324 -174 -373
-214 -22 -18 -23 -20 -10 -87 32 -169 30 -411 -5 -548 -72 -285 -243 -512
-469 -622 -115 -55 -187 -74 -306 -81 -225 -13 -418 68 -544 229 -217 276
-160 669 117 815 47 25 63 28 148 28 84 0 101 -3 145 -27 151 -80 190 -248 86
-369 -57 -67 -160 -101 -192 -63 -20 24 1 46 57 60 89 23 140 110 115 195 -49
164 -267 187 -414 44 -79 -77 -117 -177 -117 -311 0 -138 50 -260 150 -367
148 -159 398 -210 633 -129 160 55 287 153 381 295 156 237 206 527 145 842
-6 33 -12 66 -12 73 -1 28 -163 146 -322 234 -462 256 -955 253 -1417 -8 -404
-228 -618 -568 -618 -984 0 -375 196 -761 513 -1009 37 -29 67 -54 67 -56 0
-1 -27 8 -59 21 -82 33 -147 44 -263 44 -124 0 -169 -11 -288 -67 -79 -38
-107 -59 -181 -132 -73 -73 -94 -102 -132 -181 -25 -52 -53 -124 -62 -160 -9
-36 -19 -70 -21 -77 -2 -7 -39 23 -82 65 -136 135 -302 205 -482 205 -117 -1
-198 -20 -310 -76 -199 -98 -359 -327 -387 -557 l-8 -65 -120 -7 c-458 -24
-799 -376 -798 -823 0 -169 49 -345 137 -492 l44 -73 -26 -6 c-252 -53 -479
-235 -597 -478 -71 -145 -88 -231 -82 -400 4 -117 9 -153 30 -214 108 -306
389 -506 732 -519 132 -6 250 15 351 61 96 44 174 203 174 355 0 42 -5 96 -11
121 -41 179 -205 337 -390 376 -183 38 -339 -55 -339 -201 0 -61 22 -101 70
-125 49 -25 80 -25 128 -1 27 14 43 16 55 10 50 -28 -13 -90 -98 -97 -256 -21
-312 322 -73 444 172 88 394 38 558 -125 194 -192 230 -460 94 -687 -19 -33
-51 -76 -71 -96 l-36 -37 18 -48 c28 -74 91 -196 152 -295 199 -323 492 -570
818 -691 148 -55 280 -78 447 -78 335 0 649 126 927 373 89 79 94 85 98 128 6
80 43 193 96 294 90 173 261 330 441 405 186 77 427 82 626 13 69 -24 155 -67
196 -98 l31 -23 33 100 c52 161 152 313 289 441 130 122 301 219 469 266 89
25 111 27 267 26 154 -1 178 -3 258 -27 181 -56 306 -129 435 -255 216 -212
342 -505 342 -799 l0 -72 51 35 c73 49 145 67 243 62 98 -5 159 -33 233 -105
88 -86 133 -218 74 -218 -25 0 -28 4 -57 74 -27 64 -102 135 -169 160 -69 26
-153 27 -219 4 -60 -22 -140 -91 -168 -147 -25 -50 -36 -58 -61 -44 -17 9 -19
17 -13 62 19 133 22 198 14 282 -37 417 -345 790 -737 895 -321 85 -701 -33
-948 -295 -129 -136 -207 -274 -253 -446 -19 -71 -30 -96 -43 -98 -10 -2 -41
14 -70 36 -122 93 -278 149 -444 159 -395 23 -721 -221 -824 -617 l-21 -84 54
-51 c63 -59 159 -108 242 -125 141 -29 326 25 410 119 30 33 34 25 20 -31 -19
-70 -18 -229 1 -303 8 -33 32 -94 52 -135 69 -143 229 -269 380 -300 72 -15
233 -8 292 13 44 16 44 16 64 -11 39 -52 213 -218 282 -270 146 -108 382 -205
567 -232 216 -32 524 13 701 102 l39 19 36 -24 c134 -87 351 -186 490 -222
153 -40 296 -51 430 -31 195 29 351 99 582 262 262 186 356 241 476 282 203
69 409 50 628 -59 l66 -33 33 31 c51 49 126 92 201 115 99 30 237 23 321 -17
115 -55 185 -148 205 -272 29 -176 -77 -326 -241 -340 -75 -7 -102 0 -148 42
-74 67 -75 175 -4 243 43 40 96 43 101 5 3 -17 -5 -27 -31 -39 -62 -30 -75
-97 -29 -144 83 -82 227 -22 267 112 19 64 19 91 0 155 -19 63 -77 130 -146
168 -74 40 -204 47 -293 16 -74 -26 -139 -67 -193 -123 -35 -36 -45 -54 -54
-103 -14 -76 -5 -195 21 -271 88 -254 332 -351 584 -230 84 41 179 130 221
209 98 182 363 477 571 633 378 284 802 426 1229 411 186 -7 292 -25 465 -83
265 -88 504 -244 715 -466 100 -106 219 -257 275 -349 l32 -55 122 0 c107 0
129 -3 188 -26 169 -67 291 -184 355 -340 72 -177 40 -359 -83 -467 -88 -77
-224 -103 -311 -58 -79 41 -133 130 -133 218 1 84 47 170 85 155 26 -10 28
-34 6 -79 -27 -55 -27 -99 0 -154 39 -81 143 -116 233 -78 50 21 113 80 139
129 31 62 35 201 8 280 -72 203 -275 346 -492 346 -120 0 -127 -4 -164 -84
-81 -177 -121 -346 -111 -472 29 -381 325 -593 976 -698 218 -36 638 -54 847
-37 356 28 586 90 1128 301 503 196 757 265 1120 304 413 44 728 25 1030 -63
113 -33 157 -49 410 -151 314 -126 527 -167 800 -155 491 22 819 107 1440 375
615 265 889 330 1334 317 435 -13 865 -122 1250 -316 33 -17 63 -31 66 -31 12
0 -113 105 -222 187 -248 185 -521 319 -788 387 -315 80 -567 60 -1085 -84
-516 -143 -728 -183 -1102 -210 -186 -13 -336 -13 -530 0 -146 10 -444 49
-547 71 l-48 10 -38 102 c-123 334 -339 629 -610 834 -243 184 -443 279 -658
313 -106 17 -291 8 -386 -20 -317 -91 -576 -331 -757 -704 -24 -49 -44 -95
-44 -102 0 -18 104 -109 184 -162 78 -51 192 -102 276 -123 80 -20 270 -18
344 5 140 42 254 125 304 221 23 43 27 62 27 135 -1 96 -20 151 -75 214 -84
95 -221 107 -296 24 -46 -50 -38 -115 18 -144 24 -12 35 -13 64 -2 30 10 36
10 51 -5 23 -23 8 -47 -41 -66 -99 -38 -212 70 -190 184 8 44 65 110 118 137
58 30 154 30 223 -1 64 -28 136 -103 169 -176 110 -241 -25 -484 -326 -585
-93 -31 -259 -38 -370 -16 -163 33 -356 133 -455 235 -44 46 -51 49 -60 22
-10 -33 -418 -216 -674 -302 -515 -174 -959 -220 -1296 -134 -275 70 -448 223
-511 456 -13 47 -18 104 -18 216 -1 83 1 154 4 156 3 3 32 -1 65 -9 102 -24
212 -28 294 -10 212 45 402 206 455 385 48 163 -10 354 -154 504 -83 88 -173
146 -280 183 -93 31 -112 30 -176 -7 -195 -111 -262 -337 -144 -481 17 -20 55
-49 86 -64 46 -22 63 -26 106 -21 111 14 197 128 169 225 -17 58 16 90 53 52
17 -17 21 -33 21 -88 -1 -148 -112 -262 -257 -262 -113 0 -220 69 -280 182
-20 37 -23 58 -23 143 0 94 2 105 34 170 46 93 116 162 209 206 l73 34 -6 83
c-24 338 -225 602 -516 678 -85 23 -244 23 -329 1 -154 -40 -318 -150 -414
-277 -27 -36 -52 -66 -56 -68 -4 -2 -26 30 -48 71 -64 116 -156 233 -276 352
-241 239 -495 359 -810 384 -314 24 -643 -67 -931 -257 -155 -103 -328 -266
-428 -404 -40 -55 -45 -59 -132 -87 -134 -44 -226 -68 -365 -93 -109 -20 -156
-23 -365 -22 -221 0 -251 2 -373 27 -446 92 -799 317 -1014 647 -149 227 -225
488 -235 805 -3 94 -9 172 -13 175 -4 3 -15 39 -25 80 -94 402 -224 666 -434
884 -188 194 -428 306 -690 322 -188 12 -401 -42 -544 -136 -83 -54 -185 -157
-215 -216 -40 -79 -78 -80 -101 -2 -35 118 -173 295 -310 399 -124 93 -328
179 -504 210 -52 10 -70 10 -79 1 -17 -17 -48 -15 -54 3 -13 34 -290 8 -448
-42 -366 -114 -688 -412 -887 -818 -91 -188 -157 -391 -199 -610 -19 -106 -19
-105 -43 -105 -12 0 -44 18 -70 39 -69 57 -103 76 -181 100 -208 64 -426 -15
-543 -197 -40 -62 -73 -151 -73 -197 0 -43 -30 -71 -59 -55 -25 13 -26 33 -5
114 56 217 224 377 444 420 140 28 310 -12 425 -100 l31 -23 21 114 c40 205
134 457 240 640 173 298 416 540 674 671 166 84 373 136 550 138 l106 1 12 79
c63 407 408 721 816 743 172 9 364 -39 506 -127 28 -17 52 -30 53 -28 2 2 28
39 58 83 151 216 362 393 613 515 209 102 394 148 630 157 166 6 269 -4 434
-43 329 -77 680 -312 896 -599 l57 -76 44 77 c59 103 115 177 193 252 70 68
209 165 279 196 l42 19 0 73 c0 195 -81 409 -207 545 -140 151 -314 231 -534
246 l-95 6 -39 56 c-190 272 -471 544 -745 723 -123 81 -345 192 -484 243
-121 44 -339 101 -466 121 -91 14 -461 27 -545 18z m5010 -6238 c207 -65 376
-244 421 -444 l16 -70 55 25 c82 38 149 53 237 53 192 0 349 -85 456 -248 54
-82 70 -133 50 -157 -26 -32 -47 -17 -83 59 -59 125 -158 212 -288 256 -53 18
-81 21 -159 18 -85 -3 -103 -8 -177 -42 -46 -22 -90 -47 -99 -57 -20 -22 -47
-25 -62 -6 -5 6 -12 49 -14 93 -4 67 -11 95 -41 159 -68 142 -210 258 -367
300 -71 19 -238 19 -319 0 -82 -20 -216 -82 -294 -139 -81 -57 -197 -180 -254
-268 -60 -93 -156 -295 -182 -384 -12 -40 -28 -77 -36 -84 -18 -15 -55 -4 -55
16 0 27 -98 120 -157 149 -44 21 -77 29 -134 33 -68 4 -84 1 -135 -22 -113
-52 -170 -116 -208 -234 -18 -59 -24 -67 -46 -67 -24 0 -25 3 -24 51 3 107
109 246 233 307 62 30 72 32 176 32 100 0 115 -2 167 -28 31 -15 80 -48 107
-73 l51 -46 11 29 c124 329 269 526 490 672 216 143 452 184 664 117z"/>
<path d="M8180 7884 c-87 -11 -209 -37 -284 -60 -119 -38 -328 -142 -431 -215
-160 -114 -329 -297 -429 -461 -20 -34 -53 -36 -88 -8 -37 29 -154 86 -224
109 -144 48 -325 52 -474 10 -248 -68 -455 -271 -535 -523 -22 -68 -47 -196
-41 -203 2 -2 43 -10 92 -18 335 -59 636 -257 794 -525 l54 -92 30 39 c83 107
211 204 336 254 119 47 191 61 345 66 128 4 165 2 255 -17 115 -23 215 -61
327 -124 245 -138 460 -407 594 -742 37 -94 102 -324 119 -422 13 -70 16 -75
70 -126 151 -139 367 -243 573 -276 114 -19 309 -8 417 23 256 72 475 252 602
494 100 190 136 326 145 550 l6 153 36 5 c353 54 628 251 781 560 75 153 95
240 94 415 -1 208 -43 350 -157 524 -178 273 -464 437 -787 453 l-115 6 -84
-47 c-117 -64 -196 -123 -266 -197 -87 -92 -112 -127 -175 -252 -62 -124 -80
-136 -115 -79 -51 83 -150 205 -232 287 -208 209 -462 345 -771 416 -85 20
-375 34 -462 23z"/>
</g>
</svg>
