<?xml version="1.0" standalone="no"?>
<!DOCTYPE svg PUBLIC "-//W3C//DTD SVG 20010904//EN"
 "http://www.w3.org/TR/2001/REC-SVG-20010904/DTD/svg10.dtd">
<svg version="1.0" xmlns="http://www.w3.org/2000/svg"
 width="2400.000000pt" height="1001.000000pt" viewBox="0 0 2400.000000 1001.000000"
 preserveAspectRatio="xMidYMid meet">

<g transform="translate(0.000000,1001.000000) scale(0.100000,-0.100000)"
fill="#000000" stroke="none">
<path d="M10680 9851 c-212 -34 -338 -75 -522 -167 -406 -203 -721 -565 -876
-1005 -54 -154 -102 -412 -102 -553 l0 -45 -90 68 c-457 343 -1038 449 -1520
275 -414 -148 -758 -496 -925 -934 -88 -231 -125 -435 -124 -685 0 -220 7
-260 47 -292 25 -19 38 -44 61 -116 42 -132 55 -236 48 -396 -14 -338 -162
-618 -419 -792 -293 -200 -676 -223 -963 -59 -209 120 -358 336 -406 587 l-12
63 -63 35 c-150 84 -285 118 -469 118 -264 -1 -461 -85 -641 -275 -118 -124
-194 -272 -229 -448 -14 -66 -16 -115 -12 -217 7 -183 -2 -193 -143 -157 -61
16 -70 16 -140 0 -128 -28 -227 -108 -274 -220 -9 -21 -20 -74 -25 -118 -10
-88 -21 -108 -61 -108 -34 0 -59 27 -66 71 -8 45 29 187 63 252 90 165 272
268 453 255 l65 -5 1 86 c7 410 225 752 588 921 149 70 226 85 431 84 166 0
187 -3 270 -28 50 -14 127 -44 171 -65 l82 -39 6 48 c28 207 177 407 369 496
240 109 522 -15 607 -267 50 -146 -12 -300 -144 -360 -55 -25 -102 -24 -156 4
-67 33 -79 88 -27 121 12 8 26 7 49 -3 65 -26 76 -25 112 11 48 48 63 104 48
176 -31 146 -183 246 -349 229 -162 -17 -320 -172 -378 -371 -22 -75 -22 -228
-1 -319 58 -250 257 -455 506 -523 104 -29 290 -24 403 10 254 76 427 224 538
462 103 217 112 516 23 752 -19 51 -21 67 -12 87 6 14 15 25 20 25 15 0 8 22
-38 124 -61 133 -181 342 -252 438 -381 511 -922 834 -1511 903 -623 73 -1252
-149 -1733 -613 -204 -197 -357 -408 -483 -667 -103 -210 -188 -471 -210 -643
-7 -51 -8 -53 -32 -47 -176 44 -219 49 -448 49 -202 1 -243 -2 -337 -22 -289
-61 -539 -189 -739 -379 -355 -339 -542 -798 -507 -1251 14 -181 58 -329 146
-488 198 -359 552 -591 1024 -670 141 -24 171 -26 378 -21 197 4 241 8 350 31
332 73 629 242 875 497 64 66 156 174 160 186 0 1 66 -62 145 -140 501 -491
1099 -806 1780 -936 109 -21 337 -48 451 -53 63 -4 67 -2 81 23 13 22 37 33
134 65 140 44 361 153 500 246 166 111 333 270 471 448 57 75 159 238 180 290
35 83 68 89 169 28 157 -95 505 -251 732 -329 389 -132 701 -193 1062 -205
718 -25 1426 224 1878 659 110 107 237 259 312 372 71 109 192 359 229 474
115 353 124 749 24 1065 -125 398 -401 725 -773 915 -224 115 -410 162 -638
162 -195 1 -307 -20 -476 -87 -318 -128 -550 -375 -638 -681 -30 -103 -33
-342 -5 -442 44 -162 101 -264 212 -377 68 -68 96 -89 175 -127 119 -57 192
-72 318 -64 123 8 196 27 301 78 215 106 348 336 311 540 -15 82 -30 117 -70
163 -44 49 -79 66 -140 66 -61 0 -115 -25 -157 -74 -40 -45 -48 -84 -28 -132
19 -46 13 -78 -19 -99 -17 -12 -30 -13 -49 -6 -39 15 -59 54 -65 126 -4 59 -2
71 27 130 55 112 164 180 287 179 88 -1 146 -26 213 -95 103 -105 148 -268
118 -428 -31 -162 -127 -315 -255 -409 -368 -272 -853 -214 -1119 133 -66 85
-145 243 -172 344 -88 321 -16 643 206 920 145 181 335 309 582 391 162 54
312 74 511 67 l155 -6 -3 138 c-8 275 45 489 177 715 133 228 381 419 651 502
114 36 312 44 445 19 292 -54 545 -251 673 -523 19 -42 37 -79 38 -80 1 -2 31
25 66 61 144 146 342 183 516 97 166 -83 263 -246 263 -440 0 -156 -57 -248
-122 -197 -25 20 -28 41 -12 108 41 174 -39 345 -195 417 -45 21 -73 26 -132
27 -94 0 -166 -31 -234 -101 -63 -65 -93 -126 -110 -225 -15 -84 -24 -99 -63
-99 -41 0 -59 31 -67 113 -23 257 -148 460 -373 609 -220 146 -553 153 -828
19 -301 -148 -506 -438 -562 -796 -14 -97 -14 -347 1 -385 4 -8 52 -31 109
-50 271 -91 562 -286 740 -496 324 -383 453 -838 386 -1369 -90 -713 -578
-1351 -1296 -1692 -239 -114 -606 -216 -893 -249 -178 -20 -558 -15 -750 11
-515 68 -923 206 -1541 523 -4 1 -26 -30 -49 -70 -261 -444 -676 -783 -1150
-942 -79 -27 -144 -43 -157 -40 -21 6 -21 4 -11 -33 43 -160 142 -327 255
-433 76 -71 192 -149 269 -181 l51 -22 6 -121 c14 -315 136 -600 346 -812 346
-351 885 -430 1348 -199 70 36 138 73 151 83 l23 18 -36 55 c-49 71 -116 206
-149 297 -51 142 -69 261 -69 447 0 181 9 246 59 393 61 183 139 315 263 445
163 172 356 283 590 342 554 139 1075 -109 1322 -628 193 -408 119 -898 -180
-1179 -262 -247 -631 -276 -888 -68 -76 61 -145 152 -194 255 -136 283 -89
604 110 761 81 64 148 87 251 88 74 1 93 -3 142 -27 166 -82 232 -246 157
-395 -37 -74 -95 -127 -163 -147 -60 -18 -80 -19 -109 -4 -28 15 -37 28 -37
56 0 32 25 51 78 59 89 13 155 111 131 197 -32 118 -184 174 -318 117 -67 -29
-142 -111 -172 -188 -30 -77 -36 -211 -15 -312 38 -181 166 -359 308 -428 148
-72 301 -67 468 15 79 38 110 61 181 133 73 72 94 101 132 180 104 215 121
423 57 674 -51 201 -206 428 -384 563 -82 62 -241 136 -351 164 -120 30 -316
31 -455 1 -263 -55 -487 -188 -642 -381 -299 -372 -315 -927 -39 -1351 32 -49
41 -72 37 -92 -4 -23 9 -40 113 -140 361 -351 773 -593 1266 -743 283 -86 524
-120 855 -120 316 0 521 30 805 117 780 239 1422 768 1798 1480 l72 137 45 1
c78 0 257 47 361 94 133 60 255 142 361 244 146 141 248 314 305 518 26 93 28
111 28 302 l0 202 30 5 c17 2 111 6 210 9 303 9 578 42 841 101 l71 17 -8 41
c-20 103 -3 444 30 615 62 315 219 616 423 808 137 129 281 211 463 261 92 26
114 28 270 27 150 -1 181 -4 268 -27 191 -51 375 -148 537 -283 l98 -82 22 87
c70 279 294 549 563 677 276 130 590 135 874 12 168 -73 332 -211 433 -363 29
-44 56 -84 61 -89 4 -5 29 10 55 33 63 55 191 118 279 136 328 69 618 -99 711
-410 12 -41 18 -93 18 -165 0 -189 -60 -335 -187 -458 -70 -66 -94 -75 -127
-42 -33 33 -24 57 44 125 73 75 119 155 141 246 65 276 -85 534 -343 588 -116
24 -224 10 -341 -46 -88 -42 -187 -133 -176 -161 19 -48 47 -178 57 -266 13
-118 1 -252 -36 -391 -25 -94 -48 -125 -91 -125 -25 0 -55 29 -55 53 0 9 11
49 24 89 48 141 55 320 20 490 -19 93 -86 251 -139 329 -120 175 -337 320
-555 369 -125 29 -344 24 -458 -9 -315 -92 -579 -374 -647 -691 -9 -41 -21
-90 -27 -108 -9 -30 -6 -39 25 -86 116 -175 171 -353 171 -556 0 -293 -110
-531 -323 -699 -80 -62 -240 -137 -336 -156 -191 -39 -417 18 -570 143 -151
123 -235 298 -235 488 0 197 77 331 228 402 48 23 71 27 142 27 70 0 93 -4
130 -24 85 -44 111 -88 75 -125 -28 -28 -53 -28 -100 -1 -87 51 -197 32 -271
-47 -56 -58 -77 -114 -82 -210 -8 -152 50 -283 174 -398 217 -200 546 -195
793 13 256 216 327 617 167 950 -188 392 -634 660 -1052 633 -128 -8 -224 -32
-336 -84 -118 -55 -183 -99 -273 -189 -175 -173 -286 -373 -355 -638 -34 -133
-51 -298 -54 -510 -1 -110 -5 -206 -9 -212 -5 -8 8 -40 31 -80 332 -567 935
-905 1572 -880 465 19 871 191 1210 513 l89 86 48 -15 c203 -64 447 -60 652 9
228 77 438 233 556 414 27 41 50 77 51 78 1 2 90 -3 196 -12 366 -30 848 -18
1121 29 508 88 868 286 1074 590 56 83 125 225 156 320 39 118 61 221 112 515
49 288 68 371 120 526 121 365 396 685 762 887 199 110 428 194 660 243 73 15
132 28 130 29 -14 13 -200 87 -301 121 -424 143 -758 147 -1044 14 -222 -104
-330 -222 -595 -650 -53 -85 -126 -192 -162 -238 -133 -165 -306 -288 -499
-354 -162 -55 -284 -71 -486 -65 -205 7 -351 32 -561 97 l-96 30 -62 106
c-247 420 -608 747 -1024 928 -290 127 -528 176 -851 176 -455 0 -895 -148
-1274 -429 -48 -35 -153 -131 -234 -212 l-147 -148 -16 49 c-34 102 -140 185
-252 196 -105 11 -227 -55 -274 -148 -11 -21 -21 -38 -23 -38 -3 0 -14 30 -27
68 -71 216 -210 416 -377 543 -123 93 -304 171 -461 200 -59 10 -71 15 -66 28
47 123 72 323 56 457 -38 320 -210 557 -508 696 -131 62 -254 89 -404 89 -173
1 -211 -6 -238 -42 -12 -17 -47 -41 -78 -54 -171 -76 -334 -237 -426 -420 -88
-177 -119 -383 -83 -549 16 -71 16 -79 2 -101 -19 -28 -32 -32 -136 -38 -150
-10 -343 -77 -496 -172 -95 -59 -246 -203 -326 -309 -101 -136 -174 -305 -203
-471 -66 -382 104 -809 429 -1074 87 -72 228 -153 311 -181 67 -22 105 -51
105 -79 0 -24 -38 -58 -75 -67 -86 -21 -206 -100 -267 -175 -158 -194 -191
-410 -99 -648 78 -204 287 -372 537 -432 73 -17 109 -20 199 -16 134 6 224 35
325 102 157 104 239 252 240 430 1 251 -166 445 -381 445 -165 0 -284 -104
-283 -250 1 -77 19 -117 71 -157 31 -24 46 -28 97 -28 76 0 122 25 150 81 30
60 45 74 77 74 30 0 59 -31 59 -63 0 -10 -11 -39 -24 -65 -85 -166 -312 -206
-461 -79 -17 14 -44 49 -60 79 -28 49 -30 60 -30 158 0 100 1 108 34 168 19
34 54 80 78 103 178 164 496 127 665 -77 87 -105 128 -227 128 -379 0 -181
-61 -327 -190 -455 -256 -255 -688 -279 -1023 -59 -126 82 -241 209 -305 336
-18 34 -30 44 -69 57 -174 57 -361 65 -524 23 -414 -107 -669 -434 -669 -857
0 -196 52 -363 161 -512 33 -47 37 -87 11 -111 -14 -13 -39 -17 -105 -17 -151
0 -290 -57 -409 -169 -121 -113 -180 -249 -181 -416 0 -110 24 -198 79 -292
60 -104 194 -219 295 -255 24 -9 65 -23 92 -33 55 -20 69 -50 42 -91 -15 -24
-22 -26 -68 -22 -63 5 -199 67 -277 126 -225 169 -338 482 -270 746 31 123 82
208 185 311 124 124 247 191 394 216 29 4 55 10 57 12 3 2 -14 42 -35 88 -186
397 -99 864 217 1160 145 136 343 229 551 260 103 14 313 6 391 -15 30 -9 55
-16 55 -16 0 0 0 53 0 118 1 170 28 268 112 413 38 67 144 175 214 220 27 18
49 33 49 35 0 1 -33 20 -72 42 -259 143 -492 409 -593 676 -84 225 -102 489
-49 706 57 231 167 425 339 595 189 188 391 297 655 356 47 10 99 19 115 19
l30 0 0 173 c0 150 3 182 23 252 52 179 173 380 299 495 101 92 249 181 329
198 46 9 62 46 63 138 2 155 -91 253 -239 254 -48 0 -79 -7 -116 -24 l-52 -24
35 74 c54 117 74 212 74 339 0 292 -148 537 -405 667 -178 90 -416 94 -615 9
-141 -60 -283 -177 -344 -283 -12 -21 -25 -38 -29 -38 -4 0 -35 32 -70 71
-130 146 -359 315 -553 409 -131 64 -281 115 -429 146 -167 35 -438 42 -606
15z"/>
</g>
</svg>
