<?xml version="1.0" standalone="no"?>
<!DOCTYPE svg PUBLIC "-//W3C//DTD SVG 20010904//EN"
 "http://www.w3.org/TR/2001/REC-SVG-20010904/DTD/svg10.dtd">
<svg version="1.0" xmlns="http://www.w3.org/2000/svg"
 width="550.000000pt" height="299.000000pt" viewBox="0 0 550.000000 299.000000"
 preserveAspectRatio="xMidYMid meet">

<g transform="translate(0.000000,299.000000) scale(0.100000,-0.100000)"
fill="#000000" stroke="none">
<path d="M3375 2853 c-137 -21 -295 -78 -419 -151 -95 -55 -239 -193 -279
-266 -93 -170 -69 -322 79 -503 l27 -33 -75 6 c-256 22 -468 -125 -542 -375
-9 -30 -16 -69 -16 -86 0 -17 -3 -34 -6 -37 -3 -4 -31 6 -62 20 -77 36 -212
38 -284 5 -103 -47 -195 -169 -213 -280 -4 -24 -8 -43 -9 -43 -1 0 -33 16 -72
35 -174 89 -358 117 -490 76 -99 -30 -126 -50 -291 -211 -124 -122 -160 -152
-223 -182 -131 -64 -285 -90 -420 -70 -36 5 -66 9 -67 8 -7 -6 136 -102 209
-140 243 -129 413 -122 645 27 165 106 257 137 411 137 103 0 211 -23 310 -66
l59 -25 16 -80 c20 -104 90 -247 156 -320 107 -120 260 -188 440 -197 174 -8
277 28 393 137 134 125 172 261 108 387 -47 93 -115 173 -168 196 -62 28 -149
27 -227 -2 -83 -32 -174 -123 -205 -205 -66 -180 45 -365 220 -365 127 0 217
90 208 207 -6 64 -35 101 -89 109 -47 8 -89 -25 -89 -69 0 -22 -3 -28 -11 -20
-16 16 0 61 30 84 40 32 107 22 143 -21 58 -70 45 -167 -32 -242 -100 -96
-239 -88 -342 19 -178 185 -13 516 268 540 58 5 78 2 118 -16 59 -26 56 -26
56 0 0 35 60 86 126 105 78 24 202 23 273 0 29 -10 90 -43 135 -74 70 -48 89
-57 137 -60 61 -5 115 9 167 42 58 38 96 179 73 273 -26 103 -96 163 -191 163
-54 0 -81 -10 -117 -43 -26 -23 -30 -12 -7 18 36 48 47 200 20 288 -38 126
-164 221 -289 220 -107 -1 -176 -44 -224 -137 -21 -42 -24 -59 -21 -115 3 -36
9 -75 13 -86 5 -13 -5 -8 -31 17 -73 69 -160 86 -241 47 -144 -70 -164 -273
-37 -377 21 -17 35 -34 32 -38 -11 -11 -86 67 -108 111 -25 52 -29 145 -7 196
52 125 187 176 307 117 l48 -24 4 61 c12 149 134 255 279 242 206 -18 347
-229 296 -444 -13 -57 -13 -61 2 -54 65 34 166 13 223 -46 69 -71 87 -183 47
-304 -25 -77 -19 -121 37 -236 62 -130 182 -224 322 -254 178 -37 458 31 673
163 91 56 234 191 289 272 33 49 33 50 23 112 -28 161 -140 272 -294 290 -116
13 -235 -49 -284 -151 -63 -127 1 -267 121 -267 43 0 83 26 105 70 19 37 15
72 -12 101 -23 25 -42 27 -63 6 -22 -22 -32 -18 -11 5 50 55 127 -10 111 -94
-8 -42 -62 -92 -109 -101 -43 -8 -109 18 -142 57 -58 69 -56 180 7 267 l31 44
-45 43 c-114 107 -286 75 -359 -68 -10 -20 -19 -49 -19 -63 0 -14 -4 -25 -10
-25 -29 0 7 95 57 150 55 61 111 84 190 78 70 -5 121 -28 166 -75 l34 -34 53
33 c47 29 63 33 136 36 72 4 89 1 143 -23 111 -50 194 -162 209 -284 7 -51 10
-58 57 -93 78 -60 145 -81 250 -82 74 -1 97 3 130 21 180 96 160 360 -32 429
-21 7 -60 13 -86 14 -100 0 -167 -56 -167 -142 0 -41 5 -54 29 -79 20 -20 40
-29 61 -29 38 0 85 23 94 46 4 9 9 14 13 11 12 -13 -27 -56 -62 -67 -122 -40
-204 120 -112 218 12 13 52 39 89 59 83 44 150 113 191 201 29 61 32 76 32
162 0 81 -4 103 -26 150 -54 113 -141 192 -253 230 l-62 20 -17 68 c-52 201
-179 344 -369 414 -148 54 -348 48 -499 -16 -79 -33 -200 -212 -235 -347 -35
-135 -11 -302 57 -411 42 -65 120 -135 187 -166 49 -23 70 -27 152 -27 82 1
103 4 156 29 73 33 135 93 164 160 39 86 23 187 -37 230 -33 24 -104 32 -143
16 -65 -27 -104 -112 -80 -174 6 -16 8 -31 5 -34 -10 -10 -17 7 -22 51 -11 95
41 166 126 175 65 6 93 -2 134 -38 114 -99 45 -308 -128 -393 -115 -57 -228
-57 -343 -2 -108 52 -179 135 -230 264 -36 93 -37 243 -3 351 28 91 88 194
154 266 l49 54 -28 41 c-40 58 -141 147 -215 192 -109 64 -204 89 -354 92 -71
2 -143 1 -160 -2z"/>
</g>
</svg>
